<svg xmlns="http://www.w3.org/2000/svg" width="51" height="47.667" viewBox="0 0 51 47.667">
  <g transform="translate(0.5 0.5)">
    <path
      d="M31.13,32.477a1.559,1.559,0,0,1-1.562-1.556v-3.3a32.573,32.573,0,0,0-4.687-16.8L23.317,8.21a10.925,10.925,0,1,0-18.75,11.2L6.13,22.024a10.852,10.852,0,0,1,1.563,5.6v3.3a1.563,1.563,0,0,1-3.125,0v-3.3a7.752,7.752,0,0,0-1.112-4l-1.562-2.61a14.046,14.046,0,0,1,24.116-14.4l1.563,2.607a35.658,35.658,0,0,1,5.122,18.4v3.3A1.559,1.559,0,0,1,31.13,32.477Z"
      transform="translate(7.933 3.301)"
      stroke="#fff"
      stroke-miterlimit="10"
      stroke-width="1"
    ></path>
    <path
      d="M18.634,29.369a1.559,1.559,0,0,1-1.562-1.556V21.4A26.371,26.371,0,0,0,13.287,7.8l-1.562-2.6a4.684,4.684,0,1,0-8.047,4.8L5.24,12.6A17.054,17.054,0,0,1,7.7,21.4v6.415a1.563,1.563,0,0,1-3.125,0V21.4a13.953,13.953,0,0,0-2.006-7.2L1,11.589a7.8,7.8,0,0,1,13.394-8l1.563,2.6A29.457,29.457,0,0,1,20.2,21.4v6.415A1.559,1.559,0,0,1,18.634,29.369Z"
      transform="translate(14.179 9.52)"
      stroke="#fff"
      stroke-miterlimit="10"
      stroke-width="1"
    ></path>
    <path
      d="M6.257,28.023a1.559,1.559,0,0,1-1.562-1.556V15.388A20.173,20.173,0,0,0,1.8,4.985L.238,2.381A1.561,1.561,0,1,1,2.916.779l1.562,2.6A23.255,23.255,0,0,1,7.819,15.388V26.467A1.559,1.559,0,0,1,6.257,28.023Z"
      transform="translate(20.306 15.533)"
      stroke="#fff"
      stroke-miterlimit="10"
      stroke-width="1"
    ></path>
    <path
      d="M1.563,12.444A1.559,1.559,0,0,1,0,10.889V1.556A1.559,1.559,0,0,1,1.563,0h9.375a1.556,1.556,0,1,1,0,3.111H3.125v7.778A1.559,1.559,0,0,1,1.563,12.444Z"
      stroke="#fff"
      stroke-miterlimit="10"
      stroke-width="1"
    ></path>
    <path
      d="M10.938,12.444a1.559,1.559,0,0,1-1.562-1.556V3.111H1.563A1.556,1.556,0,1,1,1.563,0h9.375A1.559,1.559,0,0,1,12.5,1.556v9.333A1.559,1.559,0,0,1,10.938,12.444Z"
      transform="translate(37.5)"
      stroke="#fff"
      stroke-miterlimit="10"
      stroke-width="1"
    ></path>
    <path
      d="M10.938,12.444H1.563A1.559,1.559,0,0,1,0,10.889V1.556a1.563,1.563,0,0,1,3.125,0V9.333h7.813a1.556,1.556,0,1,1,0,3.111Z"
      transform="translate(0 34.222)"
      stroke="#fff"
      stroke-miterlimit="10"
      stroke-width="1"
    ></path>
    <path
      d="M10.938,12.444H1.563a1.556,1.556,0,1,1,0-3.111H9.375V1.556a1.563,1.563,0,0,1,3.125,0v9.333A1.559,1.559,0,0,1,10.938,12.444Z"
      transform="translate(37.5 34.222)"
      stroke="#fff"
      stroke-miterlimit="10"
      stroke-width="1"
    ></path>
  </g>
</svg>
