<svg xmlns="http://www.w3.org/2000/svg" width="1217" height="275" viewBox="0 0 1217 275"><g transform="translate(-178 -162)"><g transform="translate(261 162)"><path d="M916.5,253a106.417,106.417,0,0,0,13.861-.9H978V229.377l-7.918-34.206H904.533V164.746H885.4v30.425H849.236V216.4l-11.407-1.1h1.779v-12.1h.855a3.221,3.221,0,0,1-.3-1.707c.12-3.311-.06-6.64.068-9.942.086-2.031-.71-2.56-2.753-2.5-4.652.171-9.312.29-13.963.094-7.277-.3-7.277.853-7.277-3.559V176.1c0-4.549,0-3.269-7.234-3.636a55.993,55.993,0,0,0-6.977.1c-2.48.2-3.1-.546-3.018-2.748.154-4.267.154-8.475,0-12.708a3.976,3.976,0,0,0-1.71-2.876c-11.244-6.128-31.954-18.827-31.954-18.827s-32.416,17.419-38.794,23.785l.094,38.362H711.288q.393-42.1.675-84.2c0-.734-.086-1.468-.154-2.5l-22.924,14.432V114.735c0-2.919-.128-5.829-.239-8.748-.051-1.459-.316-2.919-.274-4.378,0-1.289.539-2.56.539-3.849,0-12.332-.06-24.664-.111-37V57.692h-2.7c-14.835,0-29.662.043-44.463-.051-2.274,0-2.8.674-2.8,2.859q.1,41.059,0,82.1l.086,16.053v38.9h-9.406V166.436c0-1.289-.222-2.56-.3-3.857-.06-1.024.077-2.159-.564-3.038a4.225,4.225,0,0,0-2.719-1.758,76.956,76.956,0,0,0-9.722-.068c-2.044.094-2.668-.632-2.625-2.646.111-5.633,0-11.257.068-16.889,0-1.6-.522-2.287-2.146-2.117a25.359,25.359,0,0,1-2.565,0H598.813V111.415c0-1.946-.624-3.072-2.711-4.267A54.834,54.834,0,0,1,583.875,97.8c-2.326-2.441-4.5-3.815-7.576-3.678-3.985.179-7.986.051-12.279.051V41.263a10.685,10.685,0,0,0-1.488.853c-11.766,8.466-23.489,16.983-35.323,25.347a5.493,5.493,0,0,0-2.565,5.121q.111,39.906.051,79.8a5.3,5.3,0,0,1-.06,2.057c-.316.666-.992,1.545-1.616,1.63a37.411,37.411,0,0,1-5.088.085c-3.352,0-3.352,0-3.318-3.277.162-15.652.291-31.3.522-46.939,0-2.125-.59-2.782-2.728-2.748-7.961.111-15.921,0-23.873.077-2.052,0-2.856-.572-2.847-2.757.043-10.1-.06-20.2-.128-30.305-.077-12.639-.222-25.287-.214-37.935,0-2.193-.7-2.791-2.8-2.56-2.377.23-4.788.06-7.183.222-1.855.119-2.471-.683-2.882-2.432-2.018-8.594-4.275-17.145-6.31-25.731C465.79.2,464.909.017,463.507,0c-1.625,0-1.813,1-2.121,2.168-2.189,8.406-4.515,16.77-6.55,25.2-.573,2.373-1.71,2.808-3.839,2.714-3.206-.154-6.422-.043-9.876-.043v2.927q0,24.169.051,48.338c0,2.287-.5,3.115-2.933,3.03-5.327-.179-10.654-.06-15.99-.043-.855,0-1.642.085-2.642.145v25.629c0,1.775-.462,2.483-2.351,2.4-3.164-.145-6.336-.043-9.5-.043h-6.31v33.156c0,3.081,0,3.081-2.993,3.081H388.347c-.068,1.272-.171,2.33-.171,3.414v45.633H374.426q0-39.463.051-78.925v-12.8a16.687,16.687,0,0,1,0-3.7,3.54,3.54,0,0,0-1.9-3.584q-15.455-10.241-30.842-20.482c-1.71-1.152-3.506-2.236-5.618-3.584v57.9a5.772,5.772,0,0,1-1.761,4.165c-4.429,4.318-8.739,8.765-13.185,13.075a5.371,5.371,0,0,0-1.71,4.267c.06,14.594,0,29.187,0,43.781h-6.208c0-10.54.086-21.088,0-31.628a4.38,4.38,0,0,0-1.419-3.286c-7.824-4.847-15.973-9.209-23.6-14.338a10.371,10.371,0,0,0-11.646.085c-8.106,5.283-16.657,10.216-25.019,15.379a3.1,3.1,0,0,0-1.625,3.217c.154,1.963.043,3.943.043,6.111H234.495c-.051,1.092-.145,2-.145,2.9v21.285h-7.174l-.445-6.623H204.063L204,210.072H170.271l-.975-36.834-24.8.7.941,36.134h-69c-3.42-.666-35.776-6.486-59.222,16.062-2.685,2.56-18.153,15.259-17.178,26H902.677A105.9,105.9,0,0,0,916.5,253Z" transform="translate(0 20)" fill="#fafafb"/><path d="M78.558,5a77.651,77.651,0,0,1,27.688,0H978V0H930.362a114.512,114.512,0,0,1-27.688,0H0V.293A10.827,10.827,0,0,0,.855,2.488,47.355,47.355,0,0,0,6.584,5Z" transform="translate(0 270)" fill="#e0e0e0"/><rect width="978" height="5" transform="translate(0 270)" fill="#f5f5f7"/><rect width="11" height="27" transform="translate(177 207)" fill="#f5f4ff"/><rect width="22" height="142" transform="translate(453 56)" fill="#f5f5f7"/><rect width="20" height="83" transform="translate(490 128)" fill="#f5f5f7"/><path d="M27,130.315,0,135V17.886L27,0V130.315Z" transform="translate(531 76)" fill="#f5f5f7"/><path d="M0,84.871V0H11.652L23.984,12.157v27.52H39.97V62.342H56V88L0,84.871Z" transform="translate(567 120)" fill="#f5f5f7"/><rect width="10" height="9" transform="translate(644 84)" fill="#f5f5f7"/><rect width="10" height="9" transform="translate(656 84)" fill="#f5f5f7"/><rect width="10" height="9" transform="translate(644 96)" fill="#f5f5f7"/><rect width="10" height="9" transform="translate(656 96)" fill="#f5f5f7"/><rect width="10" height="9" transform="translate(644 108)" fill="#f5f5f7"/><rect width="10" height="9" transform="translate(656 108)" fill="#f5f5f7"/><rect width="10" height="9" transform="translate(644 119)" fill="#f5f5f7"/><rect width="10" height="9" transform="translate(656 119)" fill="#f5f5f7"/><rect width="10" height="9" transform="translate(644 131)" fill="#f5f5f7"/><rect width="10" height="9" transform="translate(656 131)" fill="#f5f5f7"/><rect width="10" height="9" transform="translate(644 143)" fill="#f5f5f7"/><rect width="10" height="9" transform="translate(656 143)" fill="#f5f5f7"/><rect width="10" height="9" transform="translate(644 154)" fill="#f5f5f7"/><rect width="10" height="9" transform="translate(656 154)" fill="#f5f5f7"/><rect width="10" height="9" transform="translate(644 166)" fill="#f5f5f7"/><rect width="10" height="9" transform="translate(656 166)" fill="#f5f5f7"/><rect width="10" height="9" transform="translate(644 178)" fill="#f5f5f7"/><rect width="10" height="9" transform="translate(656 178)" fill="#f5f5f7"/><path d="M0,0H14.842V72.1L38,58.229V112H0V0Z" transform="translate(669 84)" fill="#f5f5f7"/><rect width="20" height="6" rx="1.85" transform="translate(425 108)" fill="#f5f5f7"/><rect width="20" height="6" rx="1.85" transform="translate(425 120)" fill="#f5f5f7"/><rect width="20" height="5" rx="1.85" transform="translate(425 132)" fill="#f5f5f7"/><rect width="20" height="6" rx="1.85" transform="translate(425 143)" fill="#f5f5f7"/><rect width="20" height="6" rx="1.85" transform="translate(425 154)" fill="#f5f5f7"/><rect width="20" height="6" rx="1.85" transform="translate(425 166)" fill="#f5f5f7"/><rect width="20" height="6" rx="1.85" transform="translate(425 178)" fill="#f5f5f7"/><path d="M12.128,0H20.9A6.079,6.079,0,0,1,27,6.054V62H0V39.418H12.084Z" transform="translate(392 134)" fill="#f5f5f7"/><path d="M0,96V62.125L13.251,50.169V0L39,18.978V96Z" transform="translate(329 109)" fill="#f5f5f7"/><path d="M0,15C.708,15,23.463,0,23.463,0L48,15Z" transform="translate(259 174)" fill="#ff591c"/><rect width="13" height="32" transform="translate(79 203)" fill="#fafafb"/><path d="M.382,37s-.86-21.279,0-22.19S27.978,0,27.978,0L53,11.729V36.217Z" transform="translate(737 166)" fill="#f5f5f7"/><rect width="24" height="17" transform="translate(860 220)" fill="rgba(255,89,28,0.1)"/><path d="M44.669,10.1a13.734,13.734,0,0,0-3.659.5,13.994,13.994,0,0,0-27.021-.478h-.614A14.092,14.092,0,0,0,0,20H58A14.085,14.085,0,0,0,44.669,10.1Z" transform="translate(320)" fill="#00b372"/><path d="M33.871,7.565a10.58,10.58,0,0,0-2.777.378,10.643,10.643,0,0,0-20.488-.361h-.469A10.691,10.691,0,0,0,0,15H44A10.674,10.674,0,0,0,33.871,7.565Z" transform="translate(764 13)" fill="#00b372"/><path d="M.52,1.7A1.388,1.388,0,0,0,1,2,8.7,8.7,0,0,1,0,0,6.372,6.372,0,0,0,.52,1.7Z" transform="translate(43 222)" fill="#e0e0e0"/><rect width="0.1" height="0.316" transform="translate(41.95 221.842)" fill="#e9e9ea"/></g><g transform="translate(178 265)"><path d="M0,2H37A86.562,86.562,0,0,0,0,2Z" transform="translate(77 101)" fill="none"/><path d="M12.336,10.121a32.1,32.1,0,0,0,5.083-4.85A31.574,31.574,0,0,0,20.948,0l.331.057a35.268,35.268,0,0,0,21.588,16.52,43.658,43.658,0,0,1,1.017,5.533h.091A3.211,3.211,0,0,1,47.3,24a4.3,4.3,0,0,1,1.439,1.332,6.482,6.482,0,0,1,.651,3.529A110.8,110.8,0,0,1,51.925,45.3c.423,5.556.228,7.446.891,17.669.628,9.837,1.142,13.776,2,15.859a5.815,5.815,0,0,0,1.256,1.981,3.423,3.423,0,0,0,.583.535A27.585,27.585,0,0,1,60,87.948c-7.082,1.389-19.772,2.607-28.338-4.7-7.881-6.74-12.724-21.1-12.873-31.775a27.5,27.5,0,0,0-2.856-13.355,24.072,24.072,0,0,0-5.962-7.3A27.537,27.537,0,0,0,0,25.741C5.608,16.44,9.617,12.227,12.336,10.121Z" transform="translate(25 60)" fill="#ffbc16"/><path d="M.425.405.575.6Z" transform="translate(77 138)" fill="#818385"/><path d="M.45.44l.1.12Z" transform="translate(77 137)" fill="#818385"/><path d="M0,37H130L128.114,2.423,65,0,0,37Z" transform="translate(76 135)" fill="#ededee"/><ellipse cx="23" cy="4.5" rx="23" ry="4.5" transform="translate(143 151)" fill="#757779"/><ellipse cx="23" cy="4" rx="23" ry="4" transform="translate(143 152)" fill="#d3d3d3"/><path d="M0,7,2.674,0H4L1.607,7Z" transform="translate(165 75)" fill="#d3d3d3"/><path d="M39,19.684S39.757-.58,21.648.013C15.372.913,5.63,1.152.128,18.75c-1.989,11.6,19.86,16.207,22.02,13.494S39,19.684,39,19.684Z" transform="translate(47 14)" fill="#3d2a24"/><path d="M25.954,11.552a2.1,2.1,0,0,0-.4-1.733l-2.4-3.981L17.344.928A4.009,4.009,0,0,0,14.788,0a3.93,3.93,0,0,0-2.523.917C10.214,2.617,5.415,6.173,0,7.168A11.65,11.65,0,0,1,.639,9.74c.269,2.169-.3,2.762,0,3.355,1.457,2.773,16.055-1.711,16.1-1.722h0L19.8,13.095C23.118,13.654,25.562,12.849,25.954,11.552Z" transform="translate(120 128)" fill="#fff3ec"/><path d="M1.812,17.62a26.185,26.185,0,0,0,1.365-5.376A34.736,34.736,0,0,0,3.384.015C10.026-.255,18.755,3.07,24.559,7.8A35.307,35.307,0,0,1,34,20.133c-1.021,2.254-1.858,3.945-2.294,4.722-1.262,2.5-4.9,3.291-6.126,5.207-.987,1.544-.551,4.283-.413,5.489.126.969.321,2.141.608,3.449A28.29,28.29,0,0,1,0,21.508,30.4,30.4,0,0,0,1.812,17.62Z" transform="translate(45 39)" fill="#f9e3d5"/><path d="M1.293,27.991a.461.461,0,0,0,.181,0,.8.8,0,0,0,.61-.966A20.848,20.848,0,0,1,6.691,8.693a20.507,20.507,0,0,1,25.066-4.71.789.789,0,0,0,1.13-.341.809.809,0,0,0-.339-1.136A22.209,22.209,0,0,0,8.65,4.692,22.48,22.48,0,0,0,.559,27.4a.8.8,0,0,0,.735.591Z" transform="translate(47 14)" fill="#614a47"/><path d="M91.676,69.239c-3.491,4.229-9.158,4.887-12.648,5.113-18.281,1.134-44.349.51-55.818.136a9.474,9.474,0,0,1-6.8-3.209A64.885,64.885,0,0,1,.213,34.251,68.909,68.909,0,0,1,6.322,0,24.856,24.856,0,0,1,22.189,12.324c5.973,10.793,5.35,36.054,16.5,44.9,3.649,2.891,15.867,3.016,40.269,3.277h9.951c2.935-1.349,5.3-1.485,5.928-.544.113.181.408.771-.272,2.154A13.415,13.415,0,0,1,91.676,69.239Z" transform="translate(18 87)" fill="#ffc944"/><path d="M.026,16.1A11.407,11.407,0,0,1,10.3,4.662c3.368-.476,5.952.782,6.84-.533a2.635,2.635,0,0,0,0-2.336l.611.113a17.588,17.588,0,0,0,7.89-.624C27.535.7,30.2-.758,32.126.489c1.661,1.134,1.984,3.4,1.846,7.449-.254,6.9-2.192,13.481-3.9,20.136-.531,2.052-3.114,10.794-6.667,12.37A7.078,7.078,0,0,1,21.03,41a7.2,7.2,0,0,1-4.106-1.349c-9.608-6.213-10.3-5.284-12.849-8.7A25.171,25.171,0,0,1,.026,16.1Z" transform="translate(52 27)" fill="#dacabf"/><path d="M.292,7.852C1.949,2.691,9.857,1.206,13,0c-.227,3.421-1.135,7.075-3.812,9.278C7.35,10.763,4.536,11.157.111,10.948a6.4,6.4,0,0,1,.182-3.1Z" transform="translate(108 135)" fill="#ffbc16"/><path d="M13.269,59.722a5.816,5.816,0,0,1-.677-.853c-1.129-1.775-1.783-5.028-2.539-16.972-.192-2.992-.316-5.267-.4-7.132-.271-6.006-.271-7.405-.372-8.964a12.828,12.828,0,0,0-.113-1.558c-.339-3.629-4.887-8.827-6.918-12.763C-.116,6.929-.669.934.843.1,2.57-.818,7.818,4.552,10.436,10.08a28.314,28.314,0,0,1,1.851,5.312,55.884,55.884,0,0,1,1.129,9.316c.248,3.674,1.907,6.962,3.25,10.317S18.7,41.851,19.86,45.264c2.663,7.769,28.215,6.1,34.14,7.428a13.073,13.073,0,0,1-.068,1.615c-3.126,1.138-10.993,2.639-12.64,7.7A6.189,6.189,0,0,0,41.111,65c-4.74-.592-8.622-.91-11.342-1.138C21.406,63.328,16.6,63.5,13.269,59.722Z" transform="translate(67 82)" fill="#ffc944"/><ellipse cx="7.47" cy="5.974" rx="7.47" ry="5.974" transform="matrix(0.03, -1, 1, 0.03, 43.22, 49.077)" fill="#614a47"/><path d="M17.489,15,18,14.06A34.761,34.761,0,0,1,12.427,10.4l-.477-.391A27.364,27.364,0,0,0,6.821,6.5c-.375-.2-.556-.28-.7-.347l-.363-.179A11.415,11.415,0,0,1,1,0L0,.391A12.448,12.448,0,0,0,5.232,6.9c.193.1.3.157.431.213a5.76,5.76,0,0,1,.647.324,26.29,26.29,0,0,1,4.948,3.356l.488.414A35.132,35.132,0,0,0,17.489,15Z" transform="translate(46 45)" fill="#5b4542"/><rect width="8.309" height="7.048" rx="3.09" transform="matrix(-0.841, -0.542, 0.542, -0.841, 67.26, 65.056)" fill="#ff591c"/><ellipse cx="3.5" cy="5" rx="3.5" ry="5" transform="translate(46 38)" fill="#503d3a"/><g transform="translate(46 40)" opacity="0.25"><ellipse cx="2.184" cy="2.753" rx="2.184" ry="2.753" transform="translate(0.02 0.618)" fill="#ff591c"/></g><path d="M.621,21.515a25.336,25.336,0,0,0,14.09-1.227c2.448-1.009,3.6-5.963,9.9-4.817,2.62.482,4.862-2.03,7.413-2.294.782-.08,1.839.264,2.505-.3a1.992,1.992,0,0,0,.46-1.537c0-2.546-.172-7.89-3.356-8.762-1.712-.459-5-1.456-7.528-2.225a8.36,8.36,0,0,0-6.482.7c-2.551,1.433-5.976,3.337-7.275,3.979C8.16,6.125,0,10.483,0,10.483A13.734,13.734,0,0,1,.69,21.5Z" transform="translate(108 136)" fill="#f9e3d5"/><path d="M0,61H1.942L15,0H12.215L0,61Z" transform="translate(153 82)" fill="#d3d3d3"/><path d="M3.426,0,15,22.458,5.987,23,0,5.2,3.426,0Z" transform="translate(163 131)" fill="#d3d3d3"/><path d="M9.748,62.58,0,68,11.072,8.125,14,0,11.611,56.612,9.748,62.58Z" transform="translate(155 75)" fill="#ebedf2"/><path d="M134.969,48h0c-.962-2.081-2.016-4.119-3.131-6.057l.987-.574c1.191,2.1,2.259,4.161,3.176,6.138L134.969,48Zm-5.491-9.935h0c-1.182-1.836-2.5-3.708-3.924-5.564l.885-.7c1.382,1.784,2.725,3.679,3.992,5.633l-.951.63ZM.862,29.506h0L0,28.76c.389-.464.823-.958,1.083-1.253l.07-.08.011-.013.01-.011.063-.072,0-.005.016-.018.1-.117.055-.063.009-.01c.229-.259.4-.46.572-.652l.828.78-.15.173-.029.032-.4.464L2.17,28,2.164,28l-.064.074c-.441.5-.858.984-1.238,1.429Zm121.809-.517h0c-1.531-1.762-3.1-3.425-4.649-4.944l.782-.826c1.589,1.542,3.18,3.229,4.73,5.014l-.861.756ZM5.978,24.022h0L5.2,23.2c1.4-1.362,3.021-2.82,5.116-4.589l.715.883c-1.38,1.166-3.2,2.733-5.047,4.531ZM114.7,20.958h0c-1.709-1.5-3.487-2.927-5.286-4.255l.67-.93c1.778,1.318,3.579,2.77,5.354,4.314l-.736.871ZM14.6,16.7v-.012l-.67-.93c1.821-1.341,3.729-2.634,5.672-3.843l.589.986c-1.921,1.2-3.8,2.473-5.59,3.8Zm91.09-2.582h0c-2.013-1.311-3.97-2.469-5.818-3.441l.533-1.01c2.191,1.177,4.309,2.495,5.91,3.511l-.623.94ZM24.138,10.672l-.532-1c1.981-1.079,4.057-2.09,6.171-3.006l.454,1.056c-1.838.776-3.773,1.7-6.091,2.914v.039Zm71.7-2.013h0c-1.967-.923-4.066-1.8-6.238-2.6l.386-1.079c2.187.809,4.316,1.7,6.33,2.65l-.477,1.031ZM34.418,6.044h0L34.077,4.9c2.061-.765,4.259-1.471,6.534-2.1l.3,1.147c-2.342.643-4.464,1.329-6.488,2.1Zm50.91-1.423h0c-2.176-.664-4.374-1.235-6.533-1.7l.227-1.148c2.218.471,4.388,1.034,6.637,1.721L85.327,4.62ZM45.237,2.9,45,1.764c2.338-.486,4.627-.871,6.806-1.147l.148,1.147c-2.244.272-4.5.649-6.716,1.124V2.9ZM74.358,2.1h0c-2.175-.339-4.434-.594-6.714-.758L67.722.193c2.3.162,4.586.421,6.806.769L74.358,2.1Zm-17.97-.776L56.31.193C58.256.064,60.153,0,61.949,0c.39,0,.783,0,1.167.009V1.156c-.5-.013-1.036-.02-1.584-.02-1.617,0-3.347.061-5.143.181v0Z" transform="translate(9 3)" fill="#e2e2e2"/><path d="M0,7.3.1,29H22V0L6.977.814" transform="translate(136 43)" fill="#fff"/><path d="M23,30H0V7.269L7.144,0H23V30ZM.982,7.985V29H22.018V.969H7.832V7.985Zm5.857-6.3h0L1.67,6.98H6.85l-.011-5.3Z" transform="translate(134 43)" fill="#ff591c"/><path d="M4.6.935A.451.451,0,0,0,5,.5.451.451,0,0,0,4.6.065H.4A.451.451,0,0,0,0,.5.451.451,0,0,0,.4.935Z" transform="translate(148 51)" fill="#e2e2e2"/><path d="M.469.065A.46.46,0,0,0,0,.5a.451.451,0,0,0,.469.43H8.531A.451.451,0,0,0,9,.5a.46.46,0,0,0-.469-.44Z" transform="translate(145 62)" fill="#e2e2e2"/><path d="M.444.065A.437.437,0,0,0,0,.5a.447.447,0,0,0,.444.44h3.1A.448.448,0,0,0,4,.5a.448.448,0,0,0-.455-.43Z" transform="translate(139 58)" fill="#e2e2e2"/><path d="M2.576.935A.437.437,0,0,0,3,.5a.427.427,0,0,0-.424-.43H.434a.435.435,0,0,0,0,.87Z" transform="translate(150 55)" fill="#e2e2e2"/><path d="M3.554.935A.448.448,0,0,0,4,.5a.438.438,0,0,0-.446-.43H.446A.438.438,0,0,0,0,.5a.448.448,0,0,0,.446.44Z" transform="translate(141 55)" fill="#e2e2e2"/><path d="M.935.49a.47.47,0,0,0-.12-.3.46.46,0,0,0-.62,0,.43.43,0,0,0-.13.3A.44.44,0,0,0,.195.8.46.46,0,0,0,.5.93.43.43,0,0,0,.935.49Z" transform="translate(148 55)" fill="#e2e2e2"/><path d="M.5.065A.467.467,0,0,0,0,.5a.476.476,0,0,0,.5.44H5.5A.476.476,0,0,0,6,.5a.467.467,0,0,0-.5-.43Z" transform="translate(144 58)" fill="#e2e2e2"/><path d="M.506.935A.43.43,0,0,0,.806.8a.46.46,0,0,0,.13-.31.44.44,0,0,0-.13-.31.45.45,0,0,0-.61,0A.43.43,0,0,0,.2.8a.44.44,0,0,0,.31.13Z" transform="translate(152 58)" fill="#e2e2e2"/><path d="M.444.065A.437.437,0,0,0,0,.5a.447.447,0,0,0,.444.44h3.1A.448.448,0,0,0,4,.5a.448.448,0,0,0-.455-.43Z" transform="translate(139 65)" fill="#e2e2e2"/><path d="M.5.065A.467.467,0,0,0,0,.5a.476.476,0,0,0,.5.44H5.5A.476.476,0,0,0,6,.5a.467.467,0,0,0-.5-.43Z" transform="translate(144 65)" fill="#e2e2e2"/><path d="M.8.193a.43.43,0,0,0-.61,0,.42.42,0,0,0-.13.3A.46.46,0,0,0,.194.8.44.44,0,0,0,.5.933.43.43,0,0,0,.8.8a.42.42,0,0,0,0-.61Z" transform="translate(152 65)" fill="#e2e2e2"/><path d="M.805.19a.45.45,0,0,0-.61,0,.43.43,0,0,0-.13.3A.44.44,0,0,0,.195.8.43.43,0,0,0,.5.93.44.44,0,0,0,.935.49a.43.43,0,0,0-.13-.3Z" transform="translate(139 55)" fill="#e2e2e2"/><path d="M.195.8a.43.43,0,0,0,.3.13A.4.4,0,0,0,.805.8.43.43,0,0,0,.935.5a.44.44,0,0,0-.13-.31.45.45,0,0,0-.61,0A.44.44,0,0,0,.065.5a.43.43,0,0,0,.13.3Z" transform="translate(141 62)" fill="#e2e2e2"/><path d="M.805.19a.45.45,0,0,0-.61,0A.44.44,0,0,0,.065.5.44.44,0,0,0,.5.93.44.44,0,0,0,.805.8.43.43,0,0,0,.935.5.44.44,0,0,0,.805.19Z" transform="translate(139 62)" fill="#e2e2e2"/><path d="M0,22.52a4.893,4.893,0,0,0,4.853,4.932H21.673a1.62,1.62,0,0,1,1.126.481L25.817,31V29.1a1.635,1.635,0,0,1,1.61-1.648h.721A4.9,4.9,0,0,0,33,22.52V4.932A4.9,4.9,0,0,0,28.147,0H4.9A4.893,4.893,0,0,0,.045,4.932Z" transform="translate(1 12)" fill="#fff"/><path d="M1.264,0h9.471A1.159,1.159,0,0,1,12,1a1.159,1.159,0,0,1-1.264,1H1.264A1.159,1.159,0,0,1,0,1,1.159,1.159,0,0,1,1.264,0Z" transform="translate(9 19)" fill="#e5e5e5"/><path d="M1.5,2A1.932,1.932,0,0,1,.436,1.7.808.808,0,0,1,0,1,.808.808,0,0,1,.436.3,1.932,1.932,0,0,1,1.5,0,1.889,1.889,0,0,1,2.551.3.8.8,0,0,1,3,1a.8.8,0,0,1-.449.7A1.889,1.889,0,0,1,1.5,2Z" transform="translate(25 19)" fill="#fff"/><path d="M1.325,0H16.675A1.2,1.2,0,0,1,18,1a1.2,1.2,0,0,1-1.325,1H1.325C.593,2,0,1.56,0,1S.593,0,1.325,0Z" transform="translate(9 24)" fill="#e4e4e4"/><path d="M1.325,0H16.675C17.407,0,18,.443,18,1.006S17.407,2,16.675,2H1.325C.593,2,0,1.557,0,1.006A1.2,1.2,0,0,1,1.325,0Z" transform="translate(9 28)" fill="#e2e2e2"/><path d="M28.735,35l0,0-5.04-5.025a.514.514,0,0,0-.357-.149H6.113A6.11,6.11,0,0,1,0,23.731V6.093A6.11,6.11,0,0,1,6.113,0H29.887A6.126,6.126,0,0,1,36,6.093V23.731a6.126,6.126,0,0,1-6.113,6.093h-.725a.509.509,0,0,0-.5.5L28.735,35ZM6.136,2.3a3.809,3.809,0,0,0-3.811,3.8V23.731a3.809,3.809,0,0,0,3.811,3.8h17.2a2.811,2.811,0,0,1,1.98.826l1.22,1.148a2.82,2.82,0,0,1,2.694-2.03h.657a3.809,3.809,0,0,0,3.811-3.8V6.093a3.825,3.825,0,0,0-3.811-3.8Z" transform="translate(0 11)" fill="#786eff"/><path d="M0,6.057.078,24H18V0L5.708.673" transform="translate(96)" fill="#fff"/><path d="M19,24H0V5.828L5.893,0H19V24ZM.831,6.391V23.2L18.2,23.168V.765H6.52V6.391ZM5.689,1.362,1.411,5.592H5.689V1.362h0Z" transform="translate(94)" fill="#00b372"/><path d="M3.69.855A.364.364,0,0,0,4,.5.364.364,0,0,0,3.69.145H.434A.377.377,0,0,0,.061.3.35.35,0,0,0,.061.7.377.377,0,0,0,.434.855Z" transform="translate(106 6)" fill="#00b372"/><path d="M.361.145A.387.387,0,0,0,0,.5.387.387,0,0,0,.361.855H7.639A.387.387,0,0,0,8,.5.387.387,0,0,0,7.639.145Z" transform="translate(102 15)" fill="#00b372"/><path d="M.53.145A.509.509,0,0,0,.074.3.3.3,0,0,0,.074.7.509.509,0,0,0,.53.855H3.621A.4.4,0,0,0,4,.5.4.4,0,0,0,3.621.145Z" transform="translate(99 13)" fill="#00b372"/><path d="M2.64.855A.386.386,0,0,0,3,.5.386.386,0,0,0,2.64.145H.5A.471.471,0,0,0,.07.3.311.311,0,0,0,.07.7.471.471,0,0,0,.5.855Z" transform="translate(107 9)" fill="#00b372"/><path d="M3.494.855A.474.474,0,0,0,3.929.7a.31.31,0,0,0,0-.394A.474.474,0,0,0,3.494.145H.506A.474.474,0,0,0,.071.3.31.31,0,0,0,.071.7.474.474,0,0,0,.506.855Z" transform="translate(100 9)" fill="#00b372"/><path d="M.855.5a.34.34,0,0,0-.11-.25.35.35,0,0,0-.5,0,.37.37,0,0,0-.1.25A.34.34,0,0,0,.5.852a.37.37,0,0,0,.25-.1A.36.36,0,0,0,.855.5Z" transform="translate(106 9)" fill="#fff"/><path d="M.351.145A.382.382,0,0,0,0,.5.382.382,0,0,0,.351.855H4.51A.452.452,0,0,0,4.931.7a.317.317,0,0,0,0-.394A.452.452,0,0,0,4.51.145Z" transform="translate(103 13)" fill="#00b372"/><path d="M.5.854A.34.34,0,0,0,.855.5a.4.4,0,0,0-.1-.26.37.37,0,0,0-.5,0A.36.36,0,0,0,.145.5a.36.36,0,0,0,.11.25.37.37,0,0,0,.25.1Z" transform="translate(109 13)" fill="#fff"/><path d="M.53.145A.509.509,0,0,0,.074.3.3.3,0,0,0,.074.7.509.509,0,0,0,.53.855H3.621A.4.4,0,0,0,4,.5.4.4,0,0,0,3.621.145Z" transform="translate(99 18)" fill="#fff"/><path d="M.351.145A.382.382,0,0,0,0,.5.382.382,0,0,0,.351.855H4.51A.452.452,0,0,0,4.931.7a.317.317,0,0,0,0-.394A.452.452,0,0,0,4.51.145Z" transform="translate(103 18)" fill="#fff"/><path d="M.755.25a.36.36,0,0,0-.5,0,.32.32,0,0,0-.11.24A.358.358,0,0,0,.5.85a.39.39,0,0,0,.25-.1.35.35,0,0,0,.1-.26.39.39,0,0,0-.1-.25Z" transform="translate(109 18)" fill="#fff"/><path d="M.755.253a.35.35,0,0,0-.5,0A.34.34,0,0,0,.145.5a.36.36,0,0,0,.11.25.37.37,0,0,0,.25.1.39.39,0,0,0,.25-.1A.35.35,0,0,0,.855.5a.33.33,0,0,0-.1-.25Z" transform="translate(98 9)" fill="#fff"/><path d="M.245.754a.4.4,0,0,0,.26.1.35.35,0,0,0,.25-.1A.39.39,0,0,0,.855.5a.4.4,0,0,0-.1-.26.38.38,0,0,0-.51,0,.4.4,0,0,0-.1.26.39.39,0,0,0,.1.25Z" transform="translate(100 15)" fill="#fff"/><path d="M.755.244a.37.37,0,0,0-.5,0A.36.36,0,0,0,.145.5.36.36,0,0,0,.5.854a.39.39,0,0,0,.25-.1A.35.35,0,0,0,.855.5a.35.35,0,0,0-.1-.26Z" transform="translate(98 15)" fill="#fff"/><path d="M.2,6.7l1.785.366a5.065,5.065,0,0,1,3.958,3.97l.352,1.8a.188.188,0,0,0,.2.165.175.175,0,0,0,.136-.039.178.178,0,0,0,.064-.127l.364-1.8a5.065,5.065,0,0,1,3.958-3.97L12.8,6.7a.2.2,0,0,0,0-.4l-1.785-.366a5.065,5.065,0,0,1-3.958-3.97L6.694.167A.178.178,0,0,0,6.63.04.175.175,0,0,0,6.494,0a.188.188,0,0,0-.2.165l-.352,1.8a5.065,5.065,0,0,1-3.958,3.97L.2,6.3a.2.2,0,0,0,0,.4Z" transform="translate(10 51)" fill="#00b372"/><path d="M.485.36l.16.28L.355.59Z" transform="translate(46 60)" fill="#8f9193"/><path d="M1.366,2.362A7.052,7.052,0,0,1,0,0C.683.964,1.366,1.968,2,3a3.876,3.876,0,0,1-.634-.638Z" transform="translate(80 139)" fill="#8f9193"/><path d="M24.94,22.733C17.953,19.989,3.213,13.574,0,7.262A17.406,17.406,0,0,0,1.624,5.489,31.7,31.7,0,0,0,5.306,0,35.358,35.358,0,0,0,31,17.527L29.937,20.5a3.779,3.779,0,0,1-2.017,2.168,3.852,3.852,0,0,1-2.98.068Z" transform="translate(40 60)" fill="#00b372"/></g><g transform="translate(1097 254)"><rect width="27" height="61" transform="translate(63 88)" fill="#f3f4f4"/><path d="M2.694,0H156.345A4.688,4.688,0,0,1,161,4.72V107H0V2.706A2.712,2.712,0,0,1,2.694,0Z" transform="translate(67 27)" fill="#ececec"/><path d="M.081,0H153.927A.073.073,0,0,1,154,.073V88H0V.073A.073.073,0,0,1,.081,0Z" transform="translate(70 31)" fill="#fff"/><path d="M14.571,15H2.428A2.458,2.458,0,0,1,0,12.519V2.48A2.457,2.457,0,0,1,2.428,0H14.571A2.457,2.457,0,0,1,17,2.48v9.981a2.524,2.524,0,0,1-.691,1.792A2.415,2.415,0,0,1,14.571,15ZM2.428,1.654a.819.819,0,0,0-.809.826v9.981a.819.819,0,0,0,.809.827H14.571a.819.819,0,0,0,.809-.827V2.48a.819.819,0,0,0-.809-.826Z" transform="translate(78 48)" fill="#e8e9ea"/><path d="M14.371,15H2.629A2.667,2.667,0,0,1,0,12.313V2.7A2.666,2.666,0,0,1,2.629,0H14.371A2.666,2.666,0,0,1,17,2.7v9.617A2.667,2.667,0,0,1,14.371,15ZM2.629,1.654A1.042,1.042,0,0,0,1.613,2.7v9.617a1.032,1.032,0,0,0,1.016,1.033H14.371a1.032,1.032,0,0,0,1.016-1.033V2.7a1.042,1.042,0,0,0-1.016-1.041Z" transform="translate(78 69)" fill="#e8e9ea"/><path d="M14.135,15H2.866A2.914,2.914,0,0,1,0,12.058V2.942A2.914,2.914,0,0,1,2.866,0H14.135A2.914,2.914,0,0,1,17,2.942v9.116A2.914,2.914,0,0,1,14.135,15ZM2.866,13.317H14.144a1.22,1.22,0,0,0,.878-.373,1.313,1.313,0,0,0,.368-.912V2.917a1.294,1.294,0,0,0-.368-.911,1.224,1.224,0,0,0-.881-.374H2.859a1.224,1.224,0,0,0-.881.374,1.294,1.294,0,0,0-.368.911v9.116a1.313,1.313,0,0,0,.368.912,1.22,1.22,0,0,0,.878.373h.01Z" transform="translate(78 89)" fill="#e8e9ea"/><path d="M171.809,0H4.191A4.785,4.785,0,0,0,0,4.977,4.785,4.785,0,0,0,4.191,9.955h67.5a6.979,6.979,0,0,1,6.4-5.267H97.907A6.98,6.98,0,0,1,104.3,10h67.507A4.785,4.785,0,0,0,176,5.023,4.785,4.785,0,0,0,171.809.045Z" transform="translate(58 128)" fill="#d3d3d3"/><path d="M12,1H9.6V0H12V1ZM7.2,1H4.8V0H7.2V1ZM2.4,1H0V0H2.4V1Z" transform="translate(81 54)" fill="#e8e9ea"/><path d="M12,1H9.6V0H12V1ZM7.2,1H4.8V0H7.2V1ZM2.4,1H0V0H2.4V1Z" transform="translate(81 56)" fill="#e8e9ea"/><path d="M12,1H9.6V0H12V1ZM7.2,1H4.8V0H7.2V1ZM2.4,1H0V0H2.4V1Z" transform="translate(81 57)" fill="#e8e9ea"/><path d="M12,1H9.6V0H12V1ZM7.2,1H4.8V0H7.2V1ZM2.4,1H0V0H2.4V1Z" transform="translate(81 60)" fill="#e8e9ea"/><path d="M12,1H9.6V0H12V1ZM7.2,1H4.8V0H7.2V1ZM2.4,1H0V0H2.4V1Z" transform="translate(81 74)" fill="#e8e9ea"/><path d="M12,1H9.6V0H12V1ZM7.2,1H4.8V0H7.2V1ZM2.4,1H0V0H2.4V1Z" transform="translate(81 75)" fill="#e8e9ea"/><path d="M12,1H9.6V0H12V1ZM7.2,1H4.8V0H7.2V1ZM2.4,1H0V0H2.4V1Z" transform="translate(81 80)" fill="#e8e9ea"/><path d="M12,1H9.6V0H12V1ZM7.2,1H4.8V0H7.2V1ZM2.4,1H0V0H2.4V1Z" transform="translate(81 81)" fill="#e8e9ea"/><path d="M12,1H9.6V0H12V1ZM7.2,1H4.8V0H7.2V1ZM2.4,1H0V0H2.4V1Z" transform="translate(81 95)" fill="#e8e9ea"/><path d="M12,1H9.6V0H12V1ZM7.2,1H4.8V0H7.2V1ZM2.4,1H0V0H2.4V1Z" transform="translate(81 96)" fill="#e8e9ea"/><path d="M12,1H9.6V0H12V1ZM7.2,1H4.8V0H7.2V1ZM2.4,1H0V0H2.4V1Z" transform="translate(81 100)" fill="#e8e9ea"/><path d="M12,1H9.6V0H12V1ZM7.2,1H4.8V0H7.2V1ZM2.4,1H0V0H2.4V1Z" transform="translate(81 101)" fill="#e8e9ea"/><rect width="24" height="15" transform="translate(263 50)" fill="#fff"/><path d="M.533,1H7.467A.517.517,0,0,0,8,.5.517.517,0,0,0,7.467,0H.533A.517.517,0,0,0,0,.5.517.517,0,0,0,.533,1Z" transform="translate(272 54)" fill="#00b372"/><path d="M14.448,0H.536A.519.519,0,0,0,0,.5.519.519,0,0,0,.536,1H14.464A.519.519,0,0,0,15,.5a.519.519,0,0,0-.536-.5Z" transform="translate(271 57)" fill="#00b372"/><path d="M14.448,0H.536A.519.519,0,0,0,0,.5.519.519,0,0,0,.536,1H14.464A.519.519,0,0,0,15,.5a.519.519,0,0,0-.536-.5Z" transform="translate(271 58)" fill="#00b372"/><path d="M6.825,29a.883.883,0,0,1-.1-.005.541.541,0,0,1-.338-.495v-5.27H3.158A3.154,3.154,0,0,1,0,20.1V8.96a3.154,3.154,0,0,1,3.158-3.13h4.3V3.13A3.164,3.164,0,0,1,10.629,0l18.2.04.008-.008A3.163,3.163,0,0,1,32,3.162v11.18a3.164,3.164,0,0,1-3.166,3.13h-.573v5.27a.513.513,0,0,1-.339.487.606.606,0,0,1-.186,0,.541.541,0,0,1-.4-.175L24.537,20v.064a3.154,3.154,0,0,1-3.165,3.123H12.487L7.318,28.819a.558.558,0,0,1-.4.175A.883.883,0,0,1,6.825,29ZM3.191,6.891A2.093,2.093,0,0,0,1.1,8.968V20.091a2.093,2.093,0,0,0,2.092,2.076H6.962a.524.524,0,0,1,.5.5V27.1l4.4-4.791a.565.565,0,0,1,.4-.168h9.1a2.082,2.082,0,0,0,2.092-2.068L23.5,8.968A2.093,2.093,0,0,0,21.4,6.891H3.191Zm7.43-5.861A2.091,2.091,0,0,0,8.529,3.106v2.7H21.363a3.152,3.152,0,0,1,3.165,3.122V18.47l2.666,2.9V16.9a.531.531,0,0,1,.533-.527h1.1a2.082,2.082,0,0,0,2.092-2.068l.008.016V3.146a2.09,2.09,0,0,0-2.1-2.076Z" transform="translate(266 43)" fill="#e3e3e3"/><rect width="51" height="51" rx="25.5" transform="translate(0 5)" fill="#00b372"/><path d="M27.217,52H24.782A24.812,24.812,0,0,1,0,27.217V24.783A24.811,24.811,0,0,1,24.782,0h2.434A24.811,24.811,0,0,1,52,24.783v2.434A24.812,24.812,0,0,1,27.217,52ZM24.782.819A24.039,24.039,0,0,0,.812,24.791v2.434A24.038,24.038,0,0,0,24.782,51.2h2.434A24.038,24.038,0,0,0,51.188,27.225V24.791A24.04,24.04,0,0,0,27.217.819Z" transform="translate(0 4)" fill="#00ac6d"/><path d="M20,29H0V0H14.994L20,5.8V29Z" transform="translate(17 14)" fill="#fff"/><path d="M14.37,0H.622A.57.57,0,0,0,0,.5.575.575,0,0,0,.622,1H14.37a.718.718,0,0,0,.445-.147A.458.458,0,0,0,15,.5a.579.579,0,0,0-.63-.5Z" transform="translate(19 27)" fill="#e3e3e3"/><path d="M14.378,0H.622A.571.571,0,0,0,0,.5.571.571,0,0,0,.622,1H14.378A.571.571,0,0,0,15,.5a.571.571,0,0,0-.622-.5Z" transform="translate(19 25)" fill="#e3e3e3"/><path d="M14.37,0H.622A.57.57,0,0,0,0,.5.575.575,0,0,0,.622,1H14.37a.718.718,0,0,0,.445-.147A.458.458,0,0,0,15,.5.579.579,0,0,0,14.37,0Z" transform="translate(19 32)" fill="#e3e3e3"/><path d="M8.36,0H.64A.587.587,0,0,0,0,.5.582.582,0,0,0,.64,1H8.36A.582.582,0,0,0,9,.5.587.587,0,0,0,8.36,0Z" transform="translate(22 37)" fill="#e3e3e3"/><path d="M8.36,0H.64A.587.587,0,0,0,0,.5.582.582,0,0,0,.64,1H8.36A.582.582,0,0,0,9,.5.587.587,0,0,0,8.36,0Z" transform="translate(22 19)" fill="#e3e3e3"/><rect width="38" height="38" rx="19" transform="translate(229 1)" fill="#1fbfdd"/><path d="M19.86,38H18.14A18.156,18.156,0,0,1,0,19.86V18.14A18.156,18.156,0,0,1,18.14,0H19.86A18.156,18.156,0,0,1,38,18.14V19.86A18.156,18.156,0,0,1,19.86,38ZM18.14,1.6A16.569,16.569,0,0,0,1.6,18.14V19.86A16.569,16.569,0,0,0,18.14,36.4H19.86A16.569,16.569,0,0,0,36.4,19.86V18.14A16.569,16.569,0,0,0,19.86,1.6Z" transform="translate(230)" fill="#27bcd8"/><path d="M15,20H0V0H11.248L15,4V20Z" transform="translate(242 8)" fill="#fff"/><path d="M11.563,0h-11A.5.5,0,0,0,.079.231a.5.5,0,0,0,0,.537A.5.5,0,0,0,.568,1h11a.5.5,0,0,0,0-.992Z" transform="translate(242 18)" fill="#e3e3e3"/><path d="M11.506,0H.5A.5.5,0,0,0,0,.5.51.51,0,0,0,.5,1h11A.5.5,0,0,0,12,.5a.49.49,0,0,0-.142-.353A.5.5,0,0,0,11.506,0Z" transform="translate(242 16)" fill="#e3e3e3"/><path d="M11.563,0h-11A.5.5,0,0,0,.079.231a.5.5,0,0,0,0,.537A.5.5,0,0,0,.568,1h11a.5.5,0,0,0,0-.992Z" transform="translate(242 21)" fill="#e3e3e3"/><path d="M5.511,0H.377A.481.481,0,0,0,0,.5.481.481,0,0,0,.377,1H5.511A.414.414,0,0,0,5.932.769a.566.566,0,0,0,0-.537A.414.414,0,0,0,5.511,0Z" transform="translate(245 25)" fill="#e3e3e3"/><path d="M5.567,0H.426a.4.4,0,0,0-.3.147A.534.534,0,0,0,0,.5.472.472,0,0,0,.426,1H5.567A.47.47,0,0,0,6,.5.533.533,0,0,0,5.875.144.4.4,0,0,0,5.567,0Z" transform="translate(245 13)" fill="#e3e3e3"/><path d="M43,14h-.184v-.806H43V14Zm-3.378,0H37.228v-.806h2.395V14Zm-5.588,0H31.64v-.806h2.395V14Zm-5.589,0H26.051v-.806h2.395V14Zm-5.588,0H20.462v-.806h2.395V14Zm-5.589,0H14.873v-.806h2.395V14ZM11.68,14H9.285v-.806H11.68V14ZM6.091,14H3.7v-.806H6.091V14ZM.5,14H0V11.284H.8V13.6H.5V14ZM.8,8.059H0V5.642H.8V8.059Zm0-5.641H0V0H.8V2.417Z" transform="translate(30 57)" fill="#c9cacc"/><path d="M27,11H24.6v-.9H27V11Zm-5.6,0h-2.4v-.9h2.4V11ZM15.81,11h-2.4v-.9h2.4V11Zm-5.6,0h-2.4v-.9h2.4V11Zm-5.6,0h-2.4v-.9h2.4V11ZM.8,8.995H0V6.3H.8v2.7Zm0-6.3H0V0H.8V2.7Z" transform="translate(42 101)" fill="#c9cacc"/><path d="M27,14h-.486v-.4H26.23V11.3H27V14Zm-3.569,0H21.119v-.808h2.312V14Zm-5.4,0H15.724v-.808h2.312V14Zm-5.4,0H10.328v-.808h2.312V14Zm-5.4,0H4.933v-.808H7.245V14Zm-5.4,0H0v-.808H1.849V14ZM27,8.074h-.77V5.652H27V8.073Zm0-5.652h-.77V0H27V2.421Z" transform="translate(223 37)" fill="#c9cacc"/><rect width="26" height="27" rx="13" transform="translate(25 77)" fill="#ff591c"/><g transform="translate(29 83)"><g transform="translate(15) rotate(180)"><path d="M-7.265,12.338a4.179,4.179,0,0,0,2.941-1.206l4-4a1.064,1.064,0,0,0,0-1.5.912.912,0,0,0-.409-.263l.409-.413A1.067,1.067,0,0,0,0,4.191a1.067,1.067,0,0,0-.323-.765,1.138,1.138,0,0,0-.4-.23l-.006,0,.051-.062a1.057,1.057,0,0,0,.324-.764A1.064,1.064,0,0,0-.677,1.6a1,1,0,0,0-.739-.309,1.08,1.08,0,0,0-.76.309l-.412.412,0-.01a.583.583,0,0,0-.116-.226A1.058,1.058,0,0,0-2.735.309,1.057,1.057,0,0,0-3.486,0a1.055,1.055,0,0,0-.75.309l-.411.412A1.24,1.24,0,0,0-4.912.309,1,1,0,0,0-5.651,0a1.08,1.08,0,0,0-.76.309L-8.353,2.25a1.173,1.173,0,0,0-.353-.677.809.809,0,0,0-.574-.242.808.808,0,0,0-.573.242l-2.353,2.353a4.158,4.158,0,0,0-1.217,2.948,4.314,4.314,0,0,0,1.187,2.993,4.065,4.065,0,0,0,1.853,1.059c.027.027.055.062.085.1l.006.007c.03.037.058.072.085.1A4.224,4.224,0,0,0-7.265,12.338Zm6.221-6.485a.479.479,0,0,1,.338.132.479.479,0,0,1,.132.338.479.479,0,0,1-.132.338l-4,4A3.6,3.6,0,0,1-7.269,11.71a3.678,3.678,0,0,1-2.5-.96,3.56,3.56,0,0,1,0-5.029l2.353-2.353A.227.227,0,0,1-7.249,3.3a.226.226,0,0,1,.161.066.841.841,0,0,1,.206.529.708.708,0,0,1-.206.529l-.353.353L-8.706,6.044a.29.29,0,0,0-.088.205.291.291,0,0,0,.088.206.291.291,0,0,0,.206.088.29.29,0,0,0,.205-.088l1.647-1.647,2.736-2.735a.479.479,0,0,1,.338-.132.478.478,0,0,1,.338.132.47.47,0,0,1,.148.323.471.471,0,0,1-.148.324l-.117.118-.059.059L-5.941,5.426a.291.291,0,0,0-.088.206.291.291,0,0,0,.088.206.316.316,0,0,0,.205.088.317.317,0,0,0,.206-.088L-2.941,3.25l1.206-1.206A.479.479,0,0,1-1.4,1.912a.482.482,0,0,1,.338.132.47.47,0,0,1,.147.324.469.469,0,0,1-.147.323l-.735.735-.354.353L-4.882,6.515a.29.29,0,0,0-.088.205.291.291,0,0,0,.088.206.291.291,0,0,0,.206.088.291.291,0,0,0,.206-.088l2.735-2.735.353-.353a.479.479,0,0,1,.338-.132.479.479,0,0,1,.338.132.469.469,0,0,1,.147.323.47.47,0,0,1-.147.324L-3.794,7.574a.287.287,0,0,0,0,.412.32.32,0,0,0,.206.088.32.32,0,0,0,.206-.088l2-2A.479.479,0,0,1-1.044,5.853ZM-7.215,2.627a.814.814,0,0,0-.579.24l-2.354,2.353a4.119,4.119,0,0,0-.764,4.793,3.656,3.656,0,0,1-.883-.617,3.56,3.56,0,0,1,0-5.029l2.353-2.353a.227.227,0,0,1,.162-.066.227.227,0,0,1,.162.066A.668.668,0,0,1-8.9,2.5a.745.745,0,0,1-.22.544l-.353.354-1.265,1.264a.289.289,0,0,0-.088.206.289.289,0,0,0,.088.206.291.291,0,0,0,.206.088.289.289,0,0,0,.205-.088l1.265-1.265.353-.353L-5.971.721A.479.479,0,0,1-5.632.589a.479.479,0,0,1,.338.132.478.478,0,0,1,.133.338.478.478,0,0,1-.133.338l-.176.176L-6.706,2.809A.807.807,0,0,0-7.215,2.627ZM-3.57,1.3a1.055,1.055,0,0,0-.753.3L-6.265,3.544c-.029-.088-.058-.176-.088-.265l1.471-1.471L-3.794.721A.479.479,0,0,1-3.456.589a.479.479,0,0,1,.338.132.483.483,0,0,1,.147.353.469.469,0,0,1-.147.323A1.083,1.083,0,0,0-3.57,1.3Z" transform="translate(1.324 -2.279) rotate(-180)" fill="#fff"/><path d="M-1.2,1.167a.363.363,0,0,1-.235-.118A.289.289,0,0,1-1.344.638L-.461.05A.289.289,0,0,1-.05.138.289.289,0,0,1-.138.55l-.882.588C-1.079,1.138-1.138,1.167-1.2,1.167Z" transform="translate(0.274 -2.156) rotate(-180)" fill="#fff"/><path d="M-.512,1.365a.309.309,0,0,1-.265.147.265.265,0,0,1-.147-.029A.271.271,0,0,1-1.041,1.1l.5-.941A.271.271,0,0,1-.159.041.271.271,0,0,1-.041.424Z" transform="translate(2.547 -0.135) rotate(-180)" fill="#fff"/><path d="M-1.228,1.934a.363.363,0,0,1-.235.118.418.418,0,0,1-.176-.059A.316.316,0,0,1-1.7,1.581L-.522.11A.316.316,0,0,1-.11.051.316.316,0,0,1-.051.463Z" transform="translate(0.89 -0.39) rotate(-180)" fill="#fff"/></g></g><path d="M14.1,27H12.9A12.9,12.9,0,0,1,0,14.1V12.9A12.9,12.9,0,0,1,12.9,0H14.1A12.9,12.9,0,0,1,27,12.9V14.1A12.9,12.9,0,0,1,14.1,27ZM12.9,1.579A11.3,11.3,0,0,0,1.612,12.864v1.209A11.3,11.3,0,0,0,12.9,25.356H14.1A11.3,11.3,0,0,0,25.388,14.072V12.864A11.3,11.3,0,0,0,14.1,1.579Z" transform="translate(24 77)" fill="#ff8b60"/><path d="M3.512,27C1.807,26.175.469,25.041.1,23.916c-.955-2.9,5.012-3.663,7.006-9.793,1.33-4.079-.767-5.436.793-8.336C10.245,1.461,18.223-1.608,23.959.906a7.936,7.936,0,0,1,0,1.619c-.324,3.678-3.341,5.344-6.912,8.22C8.643,17.5,5.864,23.97,3.512,27Z" transform="translate(256 83)" fill="#41cc22"/><path d="M6.953,28.684C4.979,29.4,2.192,28.823,0,27.679c2.318-3.212,5.038-10.068,13.351-17.251,3.518-3.048,6.491-4.813,6.81-8.711a9.043,9.043,0,0,0,0-1.716A8.451,8.451,0,0,1,21.48.76c3.182,2.206,5.374,6.758,4.2,9.921C24,15.159,17.063,12.724,12.4,17.88,8.3,22.367,10.731,27.3,6.953,28.684Z" transform="translate(259 84)" fill="#3ab41f"/><path d="M.18,24.852c-.991-.89,2.4-6.868,3.054-7.962,1.279-2.247,2.4-3.832,2.623-4.163,7-9.912,8.867-12.913,9.115-12.718s-1.2,3.095-2.559,5.418A100.446,100.446,0,0,1,4.338,16.712,11.408,11.408,0,0,0,2.163,20.1C1.284,22.427,1.476,24.818.62,25a.554.554,0,0,1-.44-.144Z" transform="translate(257 95)" fill="#52a538"/><path d="M11.833,25.8A36.545,36.545,0,0,0,8.97,15.046C5.874,7.473,2.761-.148,0,0c1.651,2.729,1.445,7.186,4.1,14.31,2.993,8.015,6.261,10.429,6.966,18.3.043.5.086.955.12,1.381a.1.1,0,0,0,.069,0C11.894,33.97,12.22,29.829,11.833,25.8Z" transform="translate(242 81)" fill="#3ab41f"/><path d="M8.155,14.317C5.589,7.214,5.788,2.731,4.193,0H4.11C1.477.3-1.7,8.382,1.078,14.253c2.492,5.335,8.066,4.98,11.5,11.72,2.043,4,1.935,7.75,2.417,8.026,0-.426-.075-.884-.116-1.381C14.2,24.75,11.046,22.335,8.155,14.317Z" transform="translate(239 81)" fill="#41cc22"/><path d="M4.376,19c.161,0,1.063-3.64.357-7.952C3.939,6.207,2.6,3.557,1.616,2.084A10.056,10.056,0,0,0,.008,0a43.169,43.169,0,0,1,3,6.3,29.691,29.691,0,0,1,1.143,7.469C4.412,17.157,4.269,19,4.376,19Z" transform="translate(249 102)" fill="#62b846"/><path d="M14,.386,13.907,2H.252L.008.415A.391.391,0,0,1,.051.142.281.281,0,0,1,.252,0H13.745a.277.277,0,0,1,.2.129A.386.386,0,0,1,14,.386Z" transform="translate(249 132)" fill="#d6420b"/><path d="M17.985.086q-.219-.449-3.913,1.432A35.656,35.656,0,0,0,9.065.275H8.947A35.656,35.656,0,0,0,3.939,1.519Q.23-.354.026.086a.277.277,0,0,0,0,.236L2.687,15H15.333L17.946.354a.308.308,0,0,0,.039-.268Z" transform="translate(246 118)" fill="#ff591c"/><g transform="translate(106 39)"><rect width="97" height="12" rx="1" fill="#f0f1ef"/><rect width="8.52" height="8.383" rx="1.71" transform="translate(4.042 1.714)" fill="#ff3b50"/><rect width="59.008" height="3.429" rx="1" transform="translate(15.358 4.286)" fill="#d8d8d8"/></g><g transform="translate(106 56)"><rect width="97" height="12" rx="1" fill="#f0f1ef"/><rect width="8.52" height="8.383" rx="1.71" transform="translate(4.042 1.714)" fill="#ffbc16"/><rect width="48.5" height="3.429" rx="1" transform="translate(15.358 4.286)" fill="#d8d8d8"/></g><g transform="translate(106 70)"><rect width="97" height="12" rx="1" fill="#f0f1ef"/><rect width="8.52" height="8.383" rx="1.71" transform="translate(4.042 1.714)" fill="#786eff"/><rect width="72.75" height="3.429" rx="1" transform="translate(15.358 4.286)" fill="#d8d8d8"/></g><g transform="translate(106 85)"><rect width="97" height="12" rx="1" fill="#f0f1ef"/><rect width="8.52" height="8.383" rx="1.71" transform="translate(4.042 1.714)" fill="#1fbfdd"/><rect width="56.583" height="3.429" rx="1" transform="translate(15.358 4.286)" fill="#d8d8d8"/></g><g transform="translate(106 101)"><rect width="97" height="12" rx="1" fill="#f0f1ef"/><rect width="8.52" height="8.383" rx="1.71" transform="translate(4.042 1.714)" fill="#414141"/><rect width="40.417" height="3.429" rx="1" transform="translate(15.358 4.286)" fill="#d8d8d8"/></g><g transform="translate(113 57)"><path d="M14.343,15.335l-.133-.1C9.493,11.789,6.535,9.963,5.551,7.492a8.026,8.026,0,0,1-.558-2.7s-.167-1.478-.75-1.7c-.292-.113-.158,0-.65.808a2.566,2.566,0,0,1-1.508-.953C1.31,1.773,2.226.2,1.843.021S.46.828.118,2.08A3.535,3.535,0,0,0,.451,4.713,5.315,5.315,0,0,0,1.618,6.078l.208.17h0A5.458,5.458,0,0,1,2.66,7.613c1.667,3.449,4.85,12.115,4.85,12.115,1.383,2.859,5,10.944,8.633,10.9,2.325,0,5.983-2.358,6.967-3.942C19.935,20.593,17.043,17.3,14.343,15.335Z" transform="translate(0 53.776)" fill="#f9e3d5"/><path d="M5.217,1.987C2.717,1.131,1.575.961,0,0,.042,1.454.075,2.932.092,4.434a6.352,6.352,0,0,0,.067,1.05c.225,1.4-.175,3.158.1,4.329.458,1.955,3.95,1.365,6.167,2.924.642.444,1.242.9,1.783,1.349Q13.583,3.449,11.617,1.971c-.55-.412-1.533-.291-2.933.363A11.815,11.815,0,0,1,5.217,1.987Z" transform="translate(17.5 66.699)" fill="#f9e3d5"/><path d="M12.342,22.353c-.583.178-.117-1.317-1.967-1.68-1.408-.283-1.892.1-3.033-.258-1.933-.6-2.833-2.859-3.083-3.489-.617-1.543-2.567-5.993-2.683-6.179h0a2.541,2.541,0,0,1-.167-.283,5.511,5.511,0,0,1-.367-.808,4.041,4.041,0,0,1-.192-.719,14.478,14.478,0,0,1,0-3.562C1.226,2.533-.508,1.337.151.53c1.217-1.5,9.017.242,10.658,4.588a6.628,6.628,0,0,1,.242,1.09c.05.218.142.614.267,1.236.7,3.489,1.142,8.077,1.142,8.077C12.867,19.825,13.1,22.119,12.342,22.353Z" transform="translate(25 13.392)" fill="#f9e3d5"/><path d="M.111,18.216c.175.065.425-.549,1.075-1.09,1.142-.953,2.65-.808,3.425-.945,2.7-.549,5.108-.573,8.45-1.074.875-.129,6.017-.888,6-1.753,0-.436-1.358-.42-2.75-1.615a5.96,5.96,0,0,1-1.717-2.5c-.992-2.859.658-4.394.058-5.993C13.452.018,4.011-1.435,1.369,1.884-.423,4.146,2.2,6.625.761,13.749.436,15.308-.273,18.095.111,18.216Z" transform="translate(35.833 19.853)" fill="#f9e3d5"/><path d="M5.065,17.326C4.59,16.454,3.69,16.284,2.99,15.9.357,14.483-.527,9.629.3,6.834,1.64.8,11.132-1.452,18.048.938c5.433,1.882,9.842,5.379,9.808,11.55.15,1.615-.283,1.535-.625,7.342-.308,5.2,0,5.888-.833,6.785-4.858-.751-11.108,1.72-13.408-1.809-.425-.662-.917-1.712-1.958-2.019-1.542-.452-2.95,1.333-3.667.477a1.938,1.938,0,0,1-.158-.2,21.016,21.016,0,0,0-1.925-1.938C4.432,19.984,5.815,18.764,5.065,17.326Z" transform="translate(23.333 0.468)" fill="#483526"/><path d="M52.383,13.562c-1.733-1.85-2.108-1.357-9.767-6.623S35.35,1.213,33.1.567c-6.35-1.833-14.167,1.1-16.667,4.273-1.358,1.737-1.525,3.376-3.908,5.258-.675.533-.467.242-4.533,2.811a27.474,27.474,0,0,1-3.567,2.108c-1.958.9-2.925.856-4.425,2.31C3.742,25.064,6.55,30.556,8.475,33.8a6.774,6.774,0,0,1,1.158,3.3,9.824,9.824,0,0,1-1.758,5.517,6.344,6.344,0,0,0-.833,1.3,5.7,5.7,0,0,0-.475,1.769A37.173,37.173,0,0,1,5.575,50.4c16.142,2.851,27.017,8.077,43.15,10.912,1.35-5.654,8.908-19.15,8.758-30.9C57.525,30.411,57.317,18.821,52.383,13.562Z" transform="translate(20 31.968)" fill="#049661"/><path d="M4.617,21.081c.833.186,1.275.121,2.283.267a16.646,16.646,0,0,1,4.842,1.446A15.573,15.573,0,0,0,12.9,18.932a13.549,13.549,0,0,0,.1-4.216c-.942-6.4-1.417-9.6-2.5-10.977A11.4,11.4,0,0,0,4.192,0,6.792,6.792,0,0,0,2.234,1.276C.217,3.2-.058,6.025.009,18.189v.662a11.248,11.248,0,0,0,4.608,2.229Z" transform="translate(17.5 48.122)" fill="#1acc8b"/><path d="M66.293,11.028A9.837,9.837,0,0,0,55.877,9.494c-2.442,1.244-4.167,1.874-6.158,6.825-.65,1.615-5.308,13.408-7.5,14.49a7.245,7.245,0,0,1-.708.3c-.833.242-1.667.065-4.517.4-3.567.412-11.45,1.333-13.692,4.135a38.056,38.056,0,0,1-3.942-6.712c-2.892-6.276-2.242-10.71-2.233-10.718A19.341,19.341,0,0,0,16.36,9.8c-.367-1.228-.767-3.408-1.608-4.394-.525-.614-1.375-.743-2.108-1.236s-1.392-1.276-2.108-1.858C9.018,1.094,7.035-.368,4.927.084,2.077.7.868,4.68.76,4.987a2.554,2.554,0,0,1-.108.42C-.94,12.821.885,21.278.885,21.278c.708,2.076.708,1.446,6.625,11.986,4.075,7.269,5.25,7.568,6.975,9.466a23.38,23.38,0,0,0,10.567,6.922c1.308.412,1.775.355,11.467,0,9.225-.347,10-.339,11.842-.929A20.108,20.108,0,0,0,57.91,41.5a26.08,26.08,0,0,0,2.867-4.846c2.017-4.321,2.125-7.269,2.958-12.535C65.527,13.048,69.643,14.211,66.293,11.028Z" transform="translate(11.667 75.584)" fill="#ffbc16"/><path d="M1.015,0c-1.142.234-2.5,10.662,3.2,15.265,2.575,2.068,6.292,2.3,10.792,2.682.933.081,2.8.178,6.533.372,2.883.145,4.325.218,4.7.218,2.633-.048,6.308-.162,9.617-2.286,1.125-.727,2.775-1.785,3.083-3.562A4.8,4.8,0,0,0,37.9,9.187c-2.842-3.562-10.467-.751-24.783-1.551-2.725-.153-5.992-.452-8.608-2.682S1.631-.117,1.015,0Z" transform="translate(29.167 99.815)" fill="#0fc784"/><path d="M51.009,8.617c-1.733-1.842-2.117-1.357-9.775-6.623L39.343.677a1.7,1.7,0,0,0-.65-.267A44.531,44.531,0,0,0,26.009.5s-3.975.678-14.167,4.458a9.7,9.7,0,0,0-.975.428,10.058,10.058,0,0,0-1.008.606c-.583.339-1.533.913-3.217,1.979a28.145,28.145,0,0,1-3.567,2.108c-1.058.477-1.825.687-2.5,1.01-.9.4-.5,1.995-.408,2.512C1,18.083,8.159,21.209,8.893,26.725c-.833,7.011-1.775,10.153-2.625,11.639-.242.436-.492.969-.992,2.035-1.233,2.625-1.383,3.392-1.125,4.1a2.583,2.583,0,0,0,1.033,1.268h0a1.508,1.508,0,0,1,1.042,1.615c-.167,1.405.133,3.594,1.417,7.051a1.568,1.568,0,0,1,0,.969c-.767,2.69.533,7.867,1.492,11.308.833,2.875,2.45,8.675,7.083,10.96,3.575,1.769,4.933-.525,13.267-.347s11.808,2.52,14.35.178a16.378,16.378,0,0,0,3.567-5.92c.833-2.294.533-3.061,1.433-8.658.408-2.585,1.2-7.713,2.558-14.991l.15-.808c1.4-7.439,2.933-14.595,4.55-21.477a1.371,1.371,0,0,0,0-.372C56.093,23.753,55.626,13.536,51.009,8.617Z" transform="translate(20.833 36.815)" fill="#00b372"/><path d="M3.822,8.075c1.967.119,3.45-1.59,3.311-3.819A4.437,4.437,0,0,0,3.32.006C1.353-.113-.13,1.6.009,3.824A4.437,4.437,0,0,0,3.822,8.075Z" transform="translate(25.866 18.34) rotate(-14.21)" fill="#846956"/><path d="M3.292,0C1.933.23,1.125,9.785.45,9.768L0,9.728H0c0,.145.192.848.6.921a.538.538,0,0,0,.35-.081c.717-.412.975-2.94,1.608-5.032S3.533,2.305,3.583,2.2c.233-.452.65-1.155.367-1.7C3.833.286,3.542-.037,3.292,0Z" transform="translate(27.5 22.276)" fill="#6c6f70"/><path d="M.417,21.6a.41.41,0,0,1-.417-.4,23.591,23.591,0,0,1,1.125-7.229C2.692,9.119,7.092,0,12.667,0h.258a8.284,8.284,0,0,1,3.958,2.148.4.4,0,0,1,.005.535.426.426,0,0,1-.547.071A7.956,7.956,0,0,0,12.883.8C8.092.59,3.717,8.683,1.917,14.2A23.026,23.026,0,0,0,.833,21.186a.4.4,0,0,1-.119.291A.423.423,0,0,1,.417,21.6Z" transform="translate(30 1.276)" fill="#7c7e80"/><path d="M1.042,11.6A1.026,1.026,0,0,1,0,10.593,24.114,24.114,0,0,1,2.158.578,1.056,1.056,0,0,1,3.517.085a1,1,0,0,1,.55,1.3,22.148,22.148,0,0,0-1.983,9.2.994.994,0,0,1-.3.719,1.059,1.059,0,0,1-.74.3Z" transform="translate(30 11.776)" fill="#7c7e80"/><path d="M2.5,5.275A2.159,2.159,0,0,0,4.672,2.781,2.9,2.9,0,0,0,2.175,0,2.159,2.159,0,0,0,.006,2.5,2.9,2.9,0,0,0,2.5,5.275Z" transform="translate(27.521 19.363) rotate(-14.21)" fill="#ff591c"/><path d="M1.144.248a1.986,1.986,0,0,1,.833,1.8c0,.283-.075.67-.308.759C1.177,2.994-.056,1.831,0,.749,0,.652.044.167.344.038S.977.143,1.144.248Z" transform="translate(26.667 29.545)" fill="#6c6f70"/></g></g></g></svg>