<svg xmlns="http://www.w3.org/2000/svg" width="31" height="31" viewBox="0 0 31 31">
  <g id="Group_3" data-name="Group 3" transform="translate(26.5 0.5)">
    <circle id="Oval" cx="15" cy="15" r="15" transform="translate(-26)" fill="#f6f7f9" stroke="#eaedf0" stroke-miterlimit="10" stroke-width="1"/>
    <g id="train-ticket" transform="translate(-20 6)">
      <path id="Shape" d="M6.675,18a.746.746,0,0,1-.531-.22L4.506,16.141l0-.006,0-.005,0,0-.006-.006a.243.243,0,0,1-.027-.035l-.011-.016-.008-.01a.513.513,0,0,1-.036-.048.6.6,0,0,1-.032-.06l0-.007-.005-.01a.422.422,0,0,1-.025-.054.664.664,0,0,1-.022-.072l0-.014a.463.463,0,0,1-.013-.054.5.5,0,0,1-.006-.059v-.014l0-.018c0-.017,0-.034,0-.051s0-.037.005-.055l0-.017,0-.017c0-.018,0-.036.007-.054s.009-.033.014-.049l.006-.02,0-.01a.505.505,0,0,1,.02-.058.392.392,0,0,1,.025-.051l.009-.016.01-.019c.008-.015.016-.03.025-.044s.026-.032.04-.048l.01-.011.015-.019a.211.211,0,0,1,.024-.028l.008-.007.005-.005.007-.008a1.107,1.107,0,0,0,.349-.811A1.126,1.126,0,0,0,3.75,13.125a1.109,1.109,0,0,0-.811.348l-.006,0-.006,0-.008.011a.232.232,0,0,1-.026.022l-.02.016c-.02.017-.04.034-.06.05a.468.468,0,0,1-.046.027l-.019.01-.02.011a.407.407,0,0,1-.042.021.457.457,0,0,1-.054.019l-.021.006-.019.006a.4.4,0,0,1-.044.013.577.577,0,0,1-.077.01l-.012,0a.419.419,0,0,1-.054,0H2.389a.275.275,0,0,1-.038,0l-.023,0H2.308a.326.326,0,0,1-.047-.005.422.422,0,0,1-.053-.012l-.02-.006-.016,0c-.017,0-.034-.009-.051-.015s-.032-.014-.048-.022l-.021-.01-.021-.011c-.014-.007-.029-.014-.043-.023a.566.566,0,0,1-.05-.039l-.009-.007-.019-.014a.269.269,0,0,1-.031-.024l0,0L1.868,13.5,1.863,13.5l0,0L.22,11.856a.751.751,0,0,1,0-1.061L10.795.22a.75.75,0,0,1,1.06,0l1.639,1.639.005.007a.043.043,0,0,0,.008.009l.006,0a.3.3,0,0,1,.028.036l.011.015.008.01a.516.516,0,0,1,.036.048c.013.022.024.045.035.067l.008.016a.451.451,0,0,1,.022.048c.008.022.014.045.02.066l0,.006,0,.014a.463.463,0,0,1,.013.054.5.5,0,0,1,.006.059v.014l0,.018c0,.018,0,.035,0,.051s0,.037-.005.055l0,.017,0,.017c0,.018,0,.036-.007.054s-.009.033-.014.049l-.006.02,0,.011a.572.572,0,0,1-.02.058.413.413,0,0,1-.024.048l-.01.017-.012.021a.455.455,0,0,1-.025.042.6.6,0,0,1-.041.05l-.008.009-.014.018a.266.266,0,0,1-.025.03l0,0-.006.005,0,.006,0,.005a1.107,1.107,0,0,0-.349.811A1.126,1.126,0,0,0,14.25,4.875a1.11,1.11,0,0,0,.812-.348l.006-.006,0,0,0,0,0,0a.234.234,0,0,1,.03-.026l.016-.012.009-.008a.53.53,0,0,1,.052-.042.406.406,0,0,1,.05-.029l.014-.007a.478.478,0,0,1,.064-.034c.016-.007.033-.012.049-.017l.022-.007.008,0c.02-.006.039-.012.058-.017a.508.508,0,0,1,.06-.008h.014l.015,0a.431.431,0,0,1,.054,0h.01l.047,0h.029a.494.494,0,0,1,.058.006.451.451,0,0,1,.053.013l.016,0,.026.007.043.013c.017.007.034.016.051.024l.015.007a.593.593,0,0,1,.067.035.388.388,0,0,1,.042.031l.017.013.021.016a.346.346,0,0,1,.03.023l0,.006,0,.006,0,0,.006,0L17.78,6.145a.75.75,0,0,1,0,1.06L7.205,17.78A.745.745,0,0,1,6.675,18ZM3.75,11.625a2.624,2.624,0,0,1,2.281,3.92l.644.644,9.514-9.514-.643-.643a2.624,2.624,0,0,1-3.578-3.578l-.643-.643L1.811,11.325l.643.643A2.637,2.637,0,0,1,3.75,11.625Z" fill="#c7cecb"/>
      <path id="Path" d="M.744,4.091a.741.741,0,0,0,.526-.218l2.6-2.6A.744.744,0,1,0,2.821.218l-2.6,2.6a.744.744,0,0,0,.526,1.27Z" transform="translate(6.545 5.727)" fill="#c7cecb"/>
      <path id="Path-2" data-name="Path" d="M1.257.205.205,1.257a.7.7,0,1,0,.992.992L2.249,1.2A.7.7,0,1,0,1.257.205Z" transform="translate(8.182 9.818)" fill="#c7cecb"/>
    </g>
  </g>
</svg>
