<svg xmlns="http://www.w3.org/2000/svg" width="18" height="18" viewBox="0 0 18 18">
  <path id="Shape" d="M9,18H9L7.076,16.607a.3.3,0,0,0-.184-.06H6.862L4.5,16.795l-.966-2.17a.315.315,0,0,0-.158-.158L1.205,13.5l.247-2.362a.308.308,0,0,0-.058-.216L0,9,1.393,7.077a.308.308,0,0,0,.058-.216L1.205,4.5l2.17-.966a.313.313,0,0,0,.158-.158L4.5,1.205l2.362.247.033,0a.305.305,0,0,0,.183-.06L9,0l1.923,1.393a.306.306,0,0,0,.183.06l.033,0L13.5,1.205l.966,2.17a.315.315,0,0,0,.158.158l2.17.966-.247,2.362a.308.308,0,0,0,.059.216L18,9l-1.393,1.923a.308.308,0,0,0-.059.216l.247,2.362-2.17.966a.315.315,0,0,0-.158.158l-.966,2.17-2.362-.247-.033,0a.306.306,0,0,0-.183.06L9,18ZM5.352,8.9a.31.31,0,0,0-.221.091l-.886.883a.313.313,0,0,0,0,.443L6.9,12.976a.315.315,0,0,0,.443,0l6.195-6.2a.312.312,0,0,0,0-.442l-.886-.886a.312.312,0,0,0-.442,0L7.123,10.542,5.573,8.994A.312.312,0,0,0,5.352,8.9Z" fill="#00b372"/>
</svg>
