<svg xmlns="http://www.w3.org/2000/svg" width="45.5" height="50.5" viewBox="0 0 45.5 50.5">
  <g transform="translate(0.25 0.25)">
    <path
      d="M18.333,26.667H0V10.833H12.5V5A3.334,3.334,0,1,0,5.833,5v.832a.833.833,0,1,1-1.666,0V5a5,5,0,1,1,10,0v5.833h4.166V26.666ZM1.667,12.5V25h15V12.5Z"
      transform="translate(13.333 6.667)"
      class="path-with-stroke"
      stroke-miterlimit="10"
      stroke-width="0.5"
    ></path>
    <path
      d="M3.334,9.167A.834.834,0,0,1,2.5,8.333V6.548a3.333,3.333,0,1,1,1.667,0V8.333A.834.834,0,0,1,3.334,9.167Zm0-7.5A1.667,1.667,0,1,0,5,3.334,1.669,1.669,0,0,0,3.334,1.667Z"
      transform="translate(19.167 20.833)"
      class="path-with-stroke"
      stroke-miterlimit="10"
      stroke-width="0.5"
    ></path>
    <path
      d="M22.5,0a22.5,22.5,0,0,0-1.924,44.912l-3.665,3.665a.833.833,0,1,0,1.178,1.178l5-5a.825.825,0,0,0,.181-.272.836.836,0,0,0-.181-.908l-5-5a.833.833,0,0,0-1.178,1.178l3.47,3.47A20.834,20.834,0,1,1,37.3,37.161a.834.834,0,1,0,1.184,1.173A22.5,22.5,0,0,0,22.5,0Z"
      class="path-with-stroke"
      stroke-miterlimit="10"
      stroke-width="0.5"
    ></path>
  </g>
</svg>
