<svg xmlns="http://www.w3.org/2000/svg" width="19.296" height="19.31" viewBox="0 0 19.296 19.31"><g transform="translate(19.661 -0.18) rotate(180)"><path d="M-9.687,16.451a5.577,5.577,0,0,0,3.922-1.608L-.431,9.509a1.4,1.4,0,0,0,.411-1,1.4,1.4,0,0,0-.411-1A1.2,1.2,0,0,0-.98,7.157l.549-.549A1.418,1.418,0,0,0,0,5.588a1.418,1.418,0,0,0-.431-1.02,1.533,1.533,0,0,0-.545-.311l.074-.08a1.418,1.418,0,0,0,.431-1.02A1.418,1.418,0,0,0-.9,2.138a1.341,1.341,0,0,0-.985-.411A1.44,1.44,0,0,0-2.9,2.138l-.549.549,0-.01a.808.808,0,0,0-.156-.3A1.408,1.408,0,0,0-3.647.412a1.4,1.4,0,0,0-1-.412,1.4,1.4,0,0,0-1,.412L-6.2.961A1.631,1.631,0,0,0-6.549.412,1.341,1.341,0,0,0-7.535,0,1.441,1.441,0,0,0-8.549.412L-11.138,3a1.557,1.557,0,0,0-.471-.9,1.078,1.078,0,0,0-.765-.323,1.08,1.08,0,0,0-.764.323l-3.137,3.137A5.542,5.542,0,0,0-17.9,9.167a5.75,5.75,0,0,0,1.583,3.991,5.4,5.4,0,0,0,2.47,1.411,1.781,1.781,0,0,1,.116.136,1.706,1.706,0,0,0,.119.139A5.634,5.634,0,0,0-9.687,16.451ZM-1.392,7.8a.638.638,0,0,1,.451.176.635.635,0,0,1,.176.452.634.634,0,0,1-.176.45l-5.333,5.333a4.794,4.794,0,0,1-3.418,1.4,4.9,4.9,0,0,1-3.326-1.28,4.747,4.747,0,0,1,0-6.706L-9.882,4.49A.3.3,0,0,1-9.667,4.4a.3.3,0,0,1,.216.088,1.131,1.131,0,0,1,.275.706.948.948,0,0,1-.275.707l-.471.471-1.687,1.686a.38.38,0,0,0,0,.549.388.388,0,0,0,.275.118.385.385,0,0,0,.274-.118l2.2-2.2,3.647-3.647a.635.635,0,0,1,.451-.176.635.635,0,0,1,.451.176.627.627,0,0,1,.2.431.628.628,0,0,1-.2.432l-.157.157-.078.078L-7.922,7.235a.38.38,0,0,0,0,.549.422.422,0,0,0,.274.118.422.422,0,0,0,.274-.118l3.452-3.451,1.607-1.608a.641.641,0,0,1,.451-.176.638.638,0,0,1,.451.176.628.628,0,0,1,.2.432.627.627,0,0,1-.2.431l-.98.98-.471.471L-6.51,8.686a.38.38,0,0,0,0,.549.385.385,0,0,0,.275.118.385.385,0,0,0,.274-.118l3.647-3.647.471-.471a.641.641,0,0,1,.451-.176.638.638,0,0,1,.451.176.628.628,0,0,1,.2.432.627.627,0,0,1-.2.431L-5.059,10.1a.388.388,0,0,0-.117.274.388.388,0,0,0,.117.274.422.422,0,0,0,.275.118.422.422,0,0,0,.274-.118L-1.843,7.98A.641.641,0,0,1-1.392,7.8ZM-9.62,3.5a1.087,1.087,0,0,0-.773.32L-13.53,6.961a5.5,5.5,0,0,0-1.02,6.393,4.986,4.986,0,0,1-1.176-.824,4.747,4.747,0,0,1,0-6.706l3.137-3.137a.3.3,0,0,1,.216-.088.3.3,0,0,1,.215.088.891.891,0,0,1,.294.646,1,1,0,0,1-.294.726l-.471.471-1.686,1.686a.38.38,0,0,0,0,.549.387.387,0,0,0,.274.118.387.387,0,0,0,.274-.118l1.687-1.686.47-.471L-7.961.961A.636.636,0,0,1-7.51.784a.639.639,0,0,1,.451.177.664.664,0,0,1,0,.9l-.236.235L-8.942,3.745A1.074,1.074,0,0,0-9.62,3.5Zm4.858-1.771a1.4,1.4,0,0,0-1,.405L-8.353,4.726l-.018-.054c-.013-.038-.026-.079-.04-.122l-.019-.057-.02-.061-.021-.06,1.961-1.96L-5.059.961A.638.638,0,0,1-4.608.785a.635.635,0,0,1,.451.176.649.649,0,0,1,.2.47.628.628,0,0,1-.2.432A1.449,1.449,0,0,0-4.762,1.733Z" transform="translate(1.765 -3.039) rotate(-180)" fill="#565d5a"/><path d="M-1.6,1.556A.484.484,0,0,1-1.909,1.4.386.386,0,0,1-1.792.85L-.615.066A.386.386,0,0,1-.066.184.386.386,0,0,1-.184.733l-1.176.784C-1.439,1.517-1.517,1.556-1.6,1.556Z" transform="translate(0.365 -2.875) rotate(-180)" fill="#565d5a"/><path d="M-.683,1.82a.412.412,0,0,1-.353.2.354.354,0,0,1-.2-.039.362.362,0,0,1-.157-.51L-.722.212A.362.362,0,0,1-.212.055a.362.362,0,0,1,.157.51Z" transform="translate(3.396 -0.18) rotate(-180)" fill="#565d5a"/><path d="M-1.637,2.578a.484.484,0,0,1-.314.157.557.557,0,0,1-.235-.078.422.422,0,0,1-.078-.549L-.7.147A.422.422,0,0,1-.147.068.422.422,0,0,1-.068.617Z" transform="translate(1.186 -0.52) rotate(-180)" fill="#565d5a"/></g></svg>