<svg xmlns="http://www.w3.org/2000/svg" width="31" height="31" viewBox="0 0 31 31">
  <g id="Group_2" data-name="Group 2" transform="translate(0.5 0.5)">
    <circle id="Oval" cx="15" cy="15" r="15" fill="#f6f7f9" stroke="#eaedf0" stroke-miterlimit="10" stroke-width="1"/>
    <g id="speech-bubble" transform="translate(6 6)">
      <path id="Shape" d="M3.972,17.379a.284.284,0,0,1-.129-.031.268.268,0,0,1-.144-.237v-3.82A6.5,6.5,0,0,1,0,7.257C0,3.12,3.869,0,9,0s9,3.12,9,7.257-3.869,7.257-9,7.257c-.168,0-.337-.009-.5-.018H8.49l-4.368,2.84A.272.272,0,0,1,3.972,17.379ZM9,.536C4.18.536.545,3.425.545,7.257a5.934,5.934,0,0,0,3.547,5.629.27.27,0,0,1,.152.24v3.486L8.264,14a.258.258,0,0,1,.14-.046l.024,0,.1.005c.153.008.312.016.469.016,4.82,0,8.455-2.889,8.455-6.72S13.819.536,9,.536Z" fill="#c7cecb" stroke="#c7cecb" stroke-miterlimit="10" stroke-width="0.5"/>
    </g>
  </g>
</svg>
