<svg id="_004-credit-card" data-name="004-credit-card" xmlns="http://www.w3.org/2000/svg" width="18" height="14" viewBox="0 0 18 14">
  <path id="Path" d="M.68,1H2.92C3.3,1,3.6.778,3.6.494S3.3,0,2.92,0H.68C.3,0,0,.222,0,.506S.315,1,.68,1Z" transform="translate(2.7 8)" fill="#a4aaa8"/>
  <path id="Shape" d="M17.365,14H.651a.669.669,0,0,1-.635-.71V5.434a.8.8,0,0,1,0-.311V.709A.668.668,0,0,1,.651,0H17.365A.676.676,0,0,1,18,.709V13.29A.669.669,0,0,1,17.365,14ZM1.286,5.988V12.6H16.73V5.988Zm0-4.568V4.586H16.73V1.419Z" fill="#a4aaa8"/>
</svg>
