<svg
  xmlns="http://www.w3.org/2000/svg"
  width="50.523"
  height="50.525"
  viewBox="0 0 50.523 50.525"
>
  <g transform="translate(0.276 0.276)">
    <path
      d="M.105,4.527l3.3,5.768a.823.823,0,0,0,.515.39l3.074.769L17.534,22,18.7,20.835,7.99,10.124a.822.822,0,0,0-.382-.217L4.653,9.166,1.848,4.252,4.253,1.846,9.168,4.655,9.909,7.61a.822.822,0,0,0,.217.383L20.835,18.7,22,17.539,11.456,6.993l-.769-3.073A.825.825,0,0,0,10.3,3.4L4.53.108A.824.824,0,0,0,3.541.24L.246,3.536A.824.824,0,0,0,.105,4.527Z"
      class="path-with-stroke"
      stroke-miterlimit="10"
      stroke-width="0.5"
    ></path>
    <path
      d="M20,1.208,1.208,20,0,18.792,18.792,0Z"
      transform="translate(15 15)"
      class="path-with-stroke"
      stroke-miterlimit="10"
      stroke-width="0.5"
    ></path>
    <path
      d="M8.572,10H3.429a.868.868,0,0,1-.735-.4L.122,5.429a.812.812,0,0,1,0-.858L2.694.4A.866.866,0,0,1,3.429,0H8.572a.866.866,0,0,1,.734.4l2.571,4.167a.808.808,0,0,1,0,.858L9.306,9.6A.867.867,0,0,1,8.572,10ZM3.914,1.667,1.857,5,3.914,8.333H8.087L10.144,5,8.087,1.667Z"
      transform="translate(4 35)"
      class="path-with-stroke"
      stroke-miterlimit="10"
      stroke-width="0.5"
    ></path>
    <path
      d="M43.277,50A6.675,6.675,0,0,1,38.5,48.01l-9.937-9.937a.832.832,0,0,1,0-1.177l.417-.417a.934.934,0,0,0-1.321-1.321l-.417.417a.833.833,0,0,1-1.178,0l-1.91-1.91-4.367,4.367A9.99,9.99,0,1,1,10,29.988a9.8,9.8,0,0,1,1.951.2L30.19,11.948A9.957,9.957,0,0,1,42.4.307a.833.833,0,0,1,.391,1.4L37.6,6.891,38.976,11l4.114,1.371,5.185-5.181a.833.833,0,0,1,1.4.388,9.962,9.962,0,0,1-9.656,12.411h-.033a9.86,9.86,0,0,1-1.951-.2l-4.367,4.367,1.91,1.91a.835.835,0,0,1,0,1.178l-.417.417a.934.934,0,0,0,1.321,1.321l.417-.417a.832.832,0,0,1,1.177,0L48.01,38.5l.042.043A6.722,6.722,0,0,1,43.277,50ZM9.94,31.654a8.385,8.385,0,1,0,8.127,6.316.837.837,0,0,1,.22-.791l18.9-18.892h0a.829.829,0,0,1,.589-.244.837.837,0,0,1,.2.025,8.288,8.288,0,0,0,2.056.259h.042A8.288,8.288,0,0,0,48.313,10c0-.153-.005-.308-.015-.473L43.9,13.918a.832.832,0,0,1-.852.2l-5-1.666a.832.832,0,0,1-.527-.526l-1.666-5a.836.836,0,0,1,.2-.851l4.394-4.4c-.163-.01-.337-.016-.516-.016A8.288,8.288,0,0,0,31.911,12.01a.836.836,0,0,1-.219.791L12.8,31.694a.843.843,0,0,1-.792.22A8.39,8.39,0,0,0,9.94,31.654Zm38.05,9.83h0L41.484,47.99a5.045,5.045,0,0,0,1.772.323h.007a5.056,5.056,0,0,0,4.727-6.829ZM28.332,33.206a2.6,2.6,0,0,1,1.993,4.27l9.355,9.355c.092.092.2.186.318.288L47.12,40c-.1-.12-.2-.227-.289-.318l-9.347-9.355a2.6,2.6,0,0,1-3.665-3.66l-1.333-1.329-7.16,7.149,1.333,1.332A2.6,2.6,0,0,1,28.332,33.206Z"
      class="path-with-stroke"
      stroke-miterlimit="10"
      stroke-width="0.5"
    ></path>
    <path
      d="M9,7.885,7.885,9,0,1.115,1.115,0Z"
      transform="translate(34 34)"
      class="path-with-stroke"
      stroke-miterlimit="10"
      stroke-width="0.5"
    ></path>
  </g>
</svg>
