<svg
  xmlns="http://www.w3.org/2000/svg"
  width="50.085"
  height="51.59"
  viewBox="0 0 50.085 51.59"
>
  <g transform="translate(0.25 0.215)">
    <path
      d="M27.815,51.09H23.908c-.39,0-5.848-.118-8.907-.464-3.3-.371-4.009-.781-6.819-2.657l-.066-.047L5.3,45.539H.926a.694.694,0,1,1,0-1.389h4.64a.7.7,0,0,1,.452.167l2.991,2.56c2.745,1.83,3.21,2.076,6.171,2.412.789.089,1.771.167,3,.24a3.954,3.954,0,0,1-.269-2.153,3.185,3.185,0,0,1,1.537-2.315,1.543,1.543,0,0,1-.121-.13,3.17,3.17,0,0,1-.759-2.5l.028-.227A3.189,3.189,0,0,1,20.111,39.9l-.121-.125a3.319,3.319,0,0,1-.463-.666A4.2,4.2,0,0,1,16.565,40.7c-.018,0-.037,0-.056,0s-.037,0-.055,0-.038,0-.057,0a.7.7,0,0,1-.693-.641.695.695,0,0,1,.638-.75c1.6-.259,2.624-.648,3.551-5.176l.093-.463,15.741-3.135c.472-.1.976-.306.976-1.518a.845.845,0,0,0-.842-.838H19.422a10.674,10.674,0,0,0-5.945,1.805L8.727,33.15a3.436,3.436,0,0,1-1.922.584H.695a.695.695,0,1,1,0-1.39H6.8a2.074,2.074,0,0,0,1.158-.352l4.749-3.147a11.884,11.884,0,0,1,3.4-1.565L24.537.451A.69.69,0,0,1,25.175,0h.014a.694.694,0,0,1,.641.427l.676,1.852,2.823-.926a.681.681,0,0,1,.2-.031.7.7,0,0,1,.654.462L30.9,3.608l2.264-.976a.7.7,0,0,1,.56,0,.68.68,0,0,1,.375.417l.579,1.741,2.472-.926a.685.685,0,0,1,.244-.044.706.706,0,0,1,.64.41l.857,1.963,2.648-.95a.7.7,0,0,1,.885.4l.7,1.8,2.069-1a.693.693,0,0,1,.3-.07.694.694,0,0,1,.66.477l.537,1.653,1.851-.986a.692.692,0,0,1,.773.079.691.691,0,0,1,.218.754L39.509,40.3a.682.682,0,0,1-.342.408.656.656,0,0,1-.338.046h-.008a.622.622,0,0,1-.2-.032L34.19,39.331a2.968,2.968,0,0,1-.524.6A2.586,2.586,0,0,1,34.7,42.095v.879a.775.775,0,0,1,0,.171A3.783,3.783,0,0,1,30.912,45.8h-.356a2.77,2.77,0,0,1,.5,1.588v.463A3.245,3.245,0,0,1,27.815,51.09Zm-6.787-5.084a1.808,1.808,0,0,0-1.768,1.542,2.243,2.243,0,0,0,.334,1.686,1.106,1.106,0,0,0,.838.389h.05l4.093.106h3.24a1.854,1.854,0,0,0,1.852-1.851l.023-.481a1.391,1.391,0,0,0-1.39-1.39H21.028Zm.662-5.2a1.8,1.8,0,0,0-1.75,1.555l-.032.227A1.788,1.788,0,0,0,21.648,44.6h.265l8.94-.2a2.52,2.52,0,0,0,2.481-1.527l-.013-.76c0-1.423-1.559-1.439-1.625-1.439l-9.143.13Zm.856-5.19a.645.645,0,0,1-.231.041,1.79,1.79,0,0,0-1.759,1.58v.175a1.786,1.786,0,0,0,1.773,2h.217l9.139-.13a1.688,1.688,0,0,0,1.093-.421L22.546,35.613Zm-3.1-8.81H35.861a2.241,2.241,0,0,1,2.231,2.231,2.614,2.614,0,0,1-2.083,2.875l-12.68,2.5,15.064,4.805L47.686,9.544l-1.084.574a.69.69,0,0,1-.986-.4l-.546-1.686-2.028.982a.7.7,0,0,1-.542.007.71.71,0,0,1-.384-.382l-.731-1.852-2.607.926a.693.693,0,0,1-.87-.37L37.037,5.4l-2.518,1a.689.689,0,0,1-.558-.01.694.694,0,0,1-.368-.42l-.57-1.723L30.8,5.21a.705.705,0,0,1-.544,0,.71.71,0,0,1-.382-.389l-.731-1.889-2.839.9a.693.693,0,0,1-.866-.421l-.2-.555L17.681,26.933A12.486,12.486,0,0,1,19.445,26.8Z"
      transform="translate(0 0.035)"
      class="path-with-stroke"
      stroke-miterlimit="10"
      stroke-width="0.5"
    ></path>
    <path
      d="M17.224,5.32.946.047A.694.694,0,1,0,.52,1.367L16.8,6.64a.681.681,0,0,0,.213.032.694.694,0,0,0,.213-1.352Z"
      transform="translate(25.475 10.05)"
      class="path-with-stroke"
      stroke-miterlimit="10"
      stroke-width="0.5"
    ></path>
    <path
      d="M17.232,5.319.954.05A.694.694,0,1,0,.533,1.37L16.806,6.643a.681.681,0,0,0,.213.032.694.694,0,0,0,.213-1.356Z"
      transform="translate(23.541 14.862)"
      class="path-with-stroke"
      stroke-miterlimit="10"
      stroke-width="0.5"
    ></path>
    <path
      d="M17.186,5.3.908.033A.7.7,0,0,0,.483,1.357L16.76,6.626a.681.681,0,0,0,.213.032A.694.694,0,0,0,17.186,5.3Z"
      transform="translate(21.948 19.939)"
      class="path-with-stroke"
      stroke-miterlimit="10"
      stroke-width="0.5"
    ></path>
  </g>
</svg>
