<svg xmlns="http://www.w3.org/2000/svg" width="49.962" height="50.394" viewBox="0 0 49.962 50.394"><g transform="translate(-0.02)"><path d="M2.038.294a1,1,0,0,0-1.42,0L.294.618a1,1,0,0,0,1.42,1.42l.324-.324A1,1,0,0,0,2.038.294Z" transform="translate(40.089 7.776)" /><path d="M7.376,0H1A1,1,0,0,0,1,2.008H5.169L1.7,5.478A1,1,0,0,0,3.118,6.9L6.372,3.643V7.376a1,1,0,0,0,2.008,0V1A1,1,0,0,0,7.376,0Z" transform="translate(41.601)" /><path d="M48.958,50.394H42.585a1,1,0,0,1,0-2.008H46.75L38.36,40A19.922,19.922,0,0,1,11.6,40L3.211,48.386H7.376a1,1,0,0,1,0,2.008H1a1,1,0,0,1-1-1V43.017a1,1,0,0,1,2.008,0V46.75l8.175-8.176a19.921,19.921,0,0,1,0-26.756L2.008,3.643V7.376A1,1,0,0,1,0,7.376V1A1,1,0,0,1,1,0H7.376a1,1,0,0,1,0,2.008H3.211L11.6,10.4A19.948,19.948,0,0,1,39.779,38.575l8.175,8.176V43.017a1,1,0,0,1,2.008,0V49.39A1,1,0,0,1,48.958,50.394ZM24.98,7.246A17.951,17.951,0,1,0,42.932,25.2,17.971,17.971,0,0,0,24.98,7.246Z" transform="translate(0.019)" /><path d="M5.018,14.095A4.652,4.652,0,0,1,.383,9.749L.121,5.722.008,4A3.753,3.753,0,0,1,3.753,0H6.284a3.753,3.753,0,0,1,3.745,4l-.076,1.15-.3,4.6a4.652,4.652,0,0,1-4.635,4.346Zm1-9.031a7.732,7.732,0,0,1-3.827,1.5l.2,3.057a2.637,2.637,0,0,0,5.263,0l.245-3.764A7.2,7.2,0,0,1,6.5,5.36a3.845,3.845,0,0,1-.486-.3ZM3.753,2.008A1.745,1.745,0,0,0,2.012,3.866l.044.685A4.664,4.664,0,0,0,5.265,2.98l.365-.972Zm3.811.56-.337.9a1.932,1.932,0,0,0,.194.112,4,4,0,0,0,.607.228A1.734,1.734,0,0,0,7.565,2.568Z" transform="translate(19.982 11.988)" /><path d="M19.158,9.252H2.967a2.968,2.968,0,0,1-2.92-3.5A7,7,0,0,1,6.94,0H8.2a1.011,1.011,0,0,1,.71.294l2.151,2.151L13.214.294A1.011,1.011,0,0,1,13.924,0h1.262a7,7,0,0,1,6.892,5.755,2.968,2.968,0,0,1-2.92,3.5ZM6.94,2.008A4.993,4.993,0,0,0,2.023,6.114a.96.96,0,0,0,.944,1.13H19.158a.96.96,0,0,0,.944-1.13,4.993,4.993,0,0,0-4.917-4.106H14.34L11.773,4.575a1.006,1.006,0,0,1-1.42,0L7.787,2.008Z" transform="translate(13.937 26.901)" /></g></svg>
