<svg xmlns="http://www.w3.org/2000/svg" width="40" height="40" viewBox="0 0 40 40"><defs><style>.a{fill:#f6f6f6;}.b{fill:#a4aaa8;}</style></defs><circle class="a" cx="20" cy="20" r="20"/><g transform="translate(10 10)"><path class="b" d="M.993,0a1,1,0,0,0,0,2A1.012,1.012,0,0,0,2,1,1.012,1.012,0,0,0,.993,0Z" transform="translate(9 13)"/><path class="b" d="M2.883,0C.907,0,0,1.089,0,1.825A.817.817,0,0,0,.878,2.6c.79,0,.468-1.049,1.961-1.049.732,0,1.317.3,1.317.926,0,.735-.82,1.158-1.3,1.539a2.432,2.432,0,0,0-.98,2.07c0,.708.2.912.8.912.717,0,.863-.3.863-.558a1.663,1.663,0,0,1,.82-1.7A3.476,3.476,0,0,0,6,2.247C6,.967,4.756,0,2.883,0Z" transform="translate(7 6)"/><path class="b" d="M10,20H.781A.782.782,0,0,1,0,19.219V10A10,10,0,0,1,17.073,2.927,10,10,0,0,1,10,20ZM10,1.562A8.447,8.447,0,0,0,1.562,10v8.438H10A8.438,8.438,0,1,0,10,1.562Z"/></g></svg>