<svg xmlns="http://www.w3.org/2000/svg" width="59.96" height="41.54" viewBox="0 0 59.96 41.54"><g transform="translate(0.01 -0.23)"><path d="M53.7,41.04H5.76A5.767,5.767,0,0,1,0,35.28V32.46a1.484,1.484,0,0,1,1.5-1.5H4.32V3.9A3.893,3.893,0,0,1,8.22,0h42.9a4.05,4.05,0,0,1,4.02,3.78V30.96h2.82a1.484,1.484,0,0,1,1.5,1.5v2.82A5.767,5.767,0,0,1,53.7,41.04ZM3,33.96v1.32a2.8,2.8,0,0,0,2.76,2.76h48a2.8,2.8,0,0,0,2.76-2.76V33.96H53.7a1.484,1.484,0,0,1-1.5-1.5V4.02A1.142,1.142,0,0,0,51.18,3H8.22a.924.924,0,0,0-.9.9V32.46a1.483,1.483,0,0,1-1.5,1.5ZM33.54,35.7H25.98a3.1,3.1,0,0,1-2.76-1.741H10.62a1.52,1.52,0,0,1-1.5-1.5,1.484,1.484,0,0,1,1.5-1.5h13.8a1.484,1.484,0,0,1,1.5,1.5V32.7h7.62V32.46a1.484,1.484,0,0,1,1.5-1.5H48.9a1.5,1.5,0,1,1,0,3H36.3A3.017,3.017,0,0,1,33.54,35.7ZM27.18,23.52A1.449,1.449,0,0,1,26.1,23.1L22.44,19.38a1.364,1.364,0,0,1-.449-.989,1.525,1.525,0,0,1,.449-1.111,1.362,1.362,0,0,1,1.028-.45,1.51,1.51,0,0,1,1.073.45l2.64,2.64,7.86-7.74a1.363,1.363,0,0,1,1.028-.45,1.512,1.512,0,0,1,1.073.45,1.364,1.364,0,0,1,.449.989,1.526,1.526,0,0,1-.449,1.112L28.26,23.1A1.528,1.528,0,0,1,27.18,23.52Z" transform="translate(0.24 0.48)"  stroke="#fff" stroke-miterlimit="10" stroke-width="0.5"/></g></svg>
