<svg
  xmlns="http://www.w3.org/2000/svg"
  width="49.999"
  height="53.334"
  viewBox="0 0 49.999 53.334"
>
  <path
    d="M17.182,53.334a1.552,1.552,0,0,1-.8-.224L.759,43.735A1.57,1.57,0,0,1,0,42.4V1.562A1.567,1.567,0,0,1,1.543,0H32.811a1.565,1.565,0,0,1,1.563,1.562V18.854H37.5V17.292a1.563,1.563,0,0,1,2.429-1.3l9.374,6.25a1.563,1.563,0,0,1,0,2.6l-9.374,6.25a1.562,1.562,0,0,1-2.429-1.3V28.229H34.375V42.4a1.564,1.564,0,0,1-1.563,1.562H18.75V51.77A1.568,1.568,0,0,1,17.182,53.334ZM3.125,4.322V41.51l12.5,7.5V11.822ZM7.2,3.125,17.991,9.6a1.57,1.57,0,0,1,.759,1.339v29.9h12.5v-12.6H23.437a1.564,1.564,0,0,1-1.562-1.562v-6.25a1.564,1.564,0,0,1,1.562-1.562h7.812V3.125ZM25,21.979V25.1H39.062a1.564,1.564,0,0,1,1.562,1.562v.205l5-3.33-5-3.331v.206a1.564,1.564,0,0,1-1.562,1.562Z"
  ></path>
</svg>
