<svg xmlns="http://www.w3.org/2000/svg" width="50.5" height="42.5" viewBox="0 0 50.5 42.5">
  <g transform="translate(0.25 0.25)">
    <path
      d="M45.806,42H4.194A4.275,4.275,0,0,1,0,37.659V4.341A4.274,4.274,0,0,1,4.194,0H45.806A4.275,4.275,0,0,1,50,4.341V37.659A4.275,4.275,0,0,1,45.806,42ZM1.742,12.477V37.659a2.539,2.539,0,0,0,2.452,2.612H45.806a2.539,2.539,0,0,0,2.453-2.612V12.477ZM4.194,1.73A2.538,2.538,0,0,0,1.742,4.341v6.406H48.259V4.341A2.539,2.539,0,0,0,45.806,1.73Z"
      class="path-with-stroke"
      stroke-miterlimit="10"
      stroke-width="0.5"
    ></path>
    <path
      d="M3,6A3,3,0,1,1,6,3,3,3,0,0,1,3,6ZM3,1.633A1.341,1.341,0,0,0,1.69,3,1.341,1.341,0,0,0,3,4.367,1.34,1.34,0,0,0,4.309,3,1.34,1.34,0,0,0,3,1.633Z"
      transform="translate(10 3)"
      class="path-with-stroke"
      stroke-miterlimit="10"
      stroke-width="0.5"
    ></path>
    <path
      d="M3,6A3,3,0,1,1,6,3,3,3,0,0,1,3,6ZM3,1.633A1.341,1.341,0,0,0,1.69,3,1.341,1.341,0,0,0,3,4.367,1.341,1.341,0,0,0,4.309,3,1.341,1.341,0,0,0,3,1.633Z"
      transform="translate(17 3)"
      class="path-with-stroke"
      stroke-miterlimit="10"
      stroke-width="0.5"
    ></path>
    <path
      d="M3,6A3,3,0,1,1,6,3,3,3,0,0,1,3,6ZM3,1.633A1.341,1.341,0,0,0,1.691,3,1.341,1.341,0,0,0,3,4.367,1.34,1.34,0,0,0,4.309,3,1.34,1.34,0,0,0,3,1.633Z"
      transform="translate(3 3)"
      class="path-with-stroke"
      stroke-miterlimit="10"
      stroke-width="0.5"
    ></path>
    <path
      d="M12.494,22H9.532a.888.888,0,0,1-.871-.806l-.153-1.6A9.018,9.018,0,0,1,6.7,18.831L5.486,19.839a.874.874,0,0,1-1.176-.055L2.219,17.7a.872.872,0,0,1-.057-1.178l1-1.21A8.829,8.829,0,0,1,2.4,13.5L.806,13.35A.885.885,0,0,1,0,12.479V9.521A.886.886,0,0,1,.806,8.65l1.6-.153a9.11,9.11,0,0,1,.761-1.8L2.164,5.48A.87.87,0,0,1,2.219,4.3L4.31,2.215A.874.874,0,0,1,5.486,2.16l1.211,1A8.759,8.759,0,0,1,8.508,2.4L8.661.808A.89.89,0,0,1,9.532,0h2.962a.89.89,0,0,1,.871.807l.153,1.6a8.964,8.964,0,0,1,1.805.762l1.215-1.008a.877.877,0,0,1,.559-.2.868.868,0,0,1,.622.259l2.066,2.087a.871.871,0,0,1,.052,1.174l-1,1.211A8.734,8.734,0,0,1,19.6,8.5L21.2,8.65a.886.886,0,0,1,.8.871v2.958a.885.885,0,0,1-.8.87l-1.579.153a9.094,9.094,0,0,1-.761,1.8l1.006,1.214a.872.872,0,0,1-.056,1.178l-2.091,2.088a.876.876,0,0,1-1.177.055l-1.211-1a8.749,8.749,0,0,1-1.809.763l-.153,1.59A.887.887,0,0,1,12.494,22ZM6.618,16.891a.873.873,0,0,1,.474.14A7.232,7.232,0,0,0,9.5,18.05a.883.883,0,0,1,.688.78l.136,1.42H11.7l.135-1.42a.9.9,0,0,1,.688-.788,6.963,6.963,0,0,0,2.4-1.009.875.875,0,0,1,1.041.057l1.079.894.963-.96-.893-1.078a.871.871,0,0,1-.058-1.036A7.3,7.3,0,0,0,18.077,12.5a.883.883,0,0,1,.776-.681l1.4-.135v-1.37l-1.421-.137a.889.889,0,0,1-.785-.684,6.963,6.963,0,0,0-1.012-2.4.871.871,0,0,1,.055-1.043l.9-1.082-.945-.954-1.075.89a.877.877,0,0,1-1.031.06,7.253,7.253,0,0,0-2.408-1.02.883.883,0,0,1-.689-.78L11.7,1.75H10.326l-.135,1.42a.894.894,0,0,1-.688.788,6.963,6.963,0,0,0-2.4,1.01.875.875,0,0,1-1.041-.057L4.982,4.017l-.963.961.892,1.077A.869.869,0,0,1,4.97,7.091,7.3,7.3,0,0,0,3.947,9.5a.882.882,0,0,1-.777.681l-1.421.137v1.369l1.422.136a.891.891,0,0,1,.785.685,6.973,6.973,0,0,0,1.013,2.4.88.88,0,0,1-.055,1.042L4.02,17.023l.963.961,1.078-.893A.877.877,0,0,1,6.618,16.891Z"
      transform="translate(14 15)"
      class="path-with-stroke"
      stroke-miterlimit="10"
      stroke-width="0.5"
    ></path>
    <path
      d="M6,12H6a6,6,0,1,1,6-6A6.008,6.008,0,0,1,6,12ZM6,1.7H6A4.3,4.3,0,1,0,10.3,6,4.306,4.306,0,0,0,6,1.7Z"
      transform="translate(19 20)"
      class="path-with-stroke"
      stroke-miterlimit="10"
      stroke-width="0.5"
    ></path>
  </g>
</svg>
