<svg id="_002-notifications-bell-button" data-name="002-notifications-bell-button" xmlns="http://www.w3.org/2000/svg" width="18" height="21.103" viewBox="0 0 18 21.103">
  <path id="Shape" d="M9,21.1a2.117,2.117,0,0,1-2.118-2.111h4.235A2.116,2.116,0,0,1,9,21.1Zm9-3.165H0V16.883l2.118-2.111v-5.8A6.715,6.715,0,0,1,3.613,4.7a7.014,7.014,0,0,1,3.8-2.374V1.583a1.589,1.589,0,0,1,3.177,0v.738a7.015,7.015,0,0,1,3.8,2.374,6.715,6.715,0,0,1,1.5,4.274v5.8L18,16.883v1.054ZM9,4.221A4.762,4.762,0,0,0,4.235,8.969v6.858h9.529V8.969A4.762,4.762,0,0,0,9,4.221Z" fill="#a4aaa8"/>
</svg>
