<svg id="lock" xmlns="http://www.w3.org/2000/svg" width="12" height="15.485" viewBox="0 0 12 15.485">
  <path id="Shape" d="M10.667,15.485H1.333A1.313,1.313,0,0,1,0,14.2V6.13a.329.329,0,0,1,.333-.323h1V4.517A4.6,4.6,0,0,1,6,0a4.6,4.6,0,0,1,4.667,4.517v1.29h1A.329.329,0,0,1,12,6.13v8.065A1.314,1.314,0,0,1,10.667,15.485ZM6,8.388A1.314,1.314,0,0,0,4.667,9.679a1.257,1.257,0,0,0,.545,1.038L5,12.547a.314.314,0,0,0,.083.25.338.338,0,0,0,.248.108H6.666a.338.338,0,0,0,.248-.108A.317.317,0,0,0,7,12.547l-.211-1.831a1.257,1.257,0,0,0,.545-1.038A1.314,1.314,0,0,0,6,8.388ZM6,1.936A2.628,2.628,0,0,0,3.334,4.517v1.29H8.667V4.517A2.628,2.628,0,0,0,6,1.936Z" fill="#00b372"/>
</svg>
