<?xml version="1.0" encoding="iso-8859-1"?>
<!-- Generator: Adobe Illustrator 16.0.0, SVG Export Plug-In . SVG Version: 6.00 Build 0)  -->
<!DOCTYPE svg PUBLIC "-//W3C//DTD SVG 1.1//EN" "http://www.w3.org/Graphics/SVG/1.1/DTD/svg11.dtd">
<svg version="1.1" id="Capa_1" xmlns="http://www.w3.org/2000/svg" xmlns:xlink="http://www.w3.org/1999/xlink" x="0px" y="0px"
	 width="97.593px" height="97.593px" viewBox="0 0 97.593 97.593" style="enable-background:new 0 0 97.593 97.593;"
	 xml:space="preserve">
<g>
	<g>
		<path d="M92.951,46.469c-0.376,0.269-0.751,0.524-1.125,0.778V9.48c0-5.243-3.943-9.48-8.796-9.48H14.612
			C9.76,0,5.817,4.237,5.817,9.48v37.802c-0.39-0.265-0.782-0.532-1.175-0.813c-2.915-2.034-4.826,0.735-3.039,3.381
			c3.479,4.262,10.093,9.555,20.234,13.719c-10.729,36.55,26.188,42.355,25.623,23.615c0,0.348,0.021-10.637,0.036-18.427
			c0.97,0.228,1.81,0.451,2.601,0.646c0.016,7.736,0.034,18.119,0.034,17.781c-0.564,18.74,36.378,12.935,25.624-23.615
			c10.142-4.164,16.757-9.457,20.233-13.719C97.777,47.205,95.867,44.436,92.951,46.469z M56.526,55.779
			c-4.516-0.228-6.189,1.714-6.412,4.707c-1.087-0.772-2.197-1.691-3.336-2.748c-0.189-0.178-0.37-0.334-0.544-0.48
			c-0.99-1.044-2.625-1.605-5.164-1.479c-6.053,0.188-17.131,1.389-30.033-5.371V13.766c0-6.638,1.691-8.72,7.767-8.72h60.554
			c5.757,0,7.789,2.474,7.789,8.72v36.336C73.992,57.212,62.668,55.972,56.526,55.779z"/>
		<path d="M63.141,29.298c-6.492,0-11.761,4.923-11.761,10.999s5.269,10.999,11.761,10.999c6.491,0,11.758-4.923,11.758-10.999
			S69.632,29.298,63.141,29.298z"/>
		<ellipse cx="35.776" cy="40.297" rx="11.757" ry="10.999"/>
	</g>
</g>
<g>
</g>
<g>
</g>
<g>
</g>
<g>
</g>
<g>
</g>
<g>
</g>
<g>
</g>
<g>
</g>
<g>
</g>
<g>
</g>
<g>
</g>
<g>
</g>
<g>
</g>
<g>
</g>
<g>
</g>
</svg>
