<svg xmlns="http://www.w3.org/2000/svg" width="52" height="52" viewBox="0 0 52 52">
  <g transform="translate(1 1)">
    <path
      d="M25,50A25,25,0,1,0,7.556,42.908,25,25,0,0,0,25,50Z"
      fill="none"
      class="path-with-stroke"
      stroke-linecap="round"
      stroke-linejoin="round"
      stroke-miterlimit="10"
      stroke-width="2"
      stroke-dasharray="1 12"
    ></path>
    <g transform="translate(11 11)">
      <path
        d="M7.125,29H3.289A3.219,3.219,0,0,1,.74,27.733,3.559,3.559,0,0,1,.07,24.85a14.9,14.9,0,0,1,4.852-8.368,13.825,13.825,0,0,1,4.541-2.609A7.768,7.768,0,0,1,6.5,7.7,7.55,7.55,0,0,1,13.872,0a7.551,7.551,0,0,1,7.37,7.7,7.765,7.765,0,0,1-2.957,6.165c.21.073.382.137.542.2a1.152,1.152,0,0,1,.634,1.459,1.092,1.092,0,0,1-1.015.735,1.038,1.038,0,0,1-.381-.073,11.432,11.432,0,0,0-3.914-.788c-.112,0-.2.006-.279.006s-.165,0-.276-.006a12.178,12.178,0,0,0-11.4,9.912,1.225,1.225,0,0,0,.229.992,1.085,1.085,0,0,0,.867.431H7.125a1.134,1.134,0,0,1,0,2.265Zm6.746-15.869.169,0h.085A5.33,5.33,0,0,0,19.074,7.7a5.33,5.33,0,0,0-5.2-5.438A5.33,5.33,0,0,0,8.67,7.7a5.33,5.33,0,0,0,4.948,5.431H13.7Z"
        stroke="#fff"
        stroke-miterlimit="10"
        stroke-width="0.5"
      ></path>
      <path
        d="M19.428,1.747A2.986,2.986,0,0,0,16.7,0H13.241a2.933,2.933,0,0,0-2.772,1.869c-.058.151-.129.341-.2.563H3.011a1.109,1.109,0,0,0-.795.335L.313,4.724a1.1,1.1,0,0,0,0,1.545L2.257,8.237a1.109,1.109,0,0,0,.79.331h3.6a1.106,1.106,0,1,0,0-2.211H3.511l-.855-.868.823-.846H11.1A1.107,1.107,0,0,0,12.173,3.8a9.122,9.122,0,0,1,.365-1.138.726.726,0,0,1,.706-.451H16.7a.756.756,0,0,1,.7.438,7.127,7.127,0,0,1,.655,2.818,7.337,7.337,0,0,1-.65,2.869.757.757,0,0,1-.7.453h-3.5A.789.789,0,0,1,12.5,8.3a7.337,7.337,0,0,1-.343-1.094A1.108,1.108,0,0,0,10,7.72a9.5,9.5,0,0,0,.45,1.423A2.989,2.989,0,0,0,13.212,11h3.5a2.971,2.971,0,0,0,2.725-1.78,9.552,9.552,0,0,0,.835-3.757A9.343,9.343,0,0,0,19.428,1.747Z"
        transform="translate(7.724 18)"
        stroke="#fff"
        stroke-miterlimit="10"
        stroke-width="0.5"
      ></path>
      <ellipse cx="0.966" cy="1" rx="0.966" ry="1" transform="translate(22.207 22)"></ellipse>
    </g>
  </g>
</svg>
