<svg xmlns="http://www.w3.org/2000/svg" width="18" height="18" viewBox="0 0 18 18"><path d="M7,0A6.95,6.95,0,0,0,0,6.882v6.353a1.6,1.6,0,0,0,1.615,1.588,1.6,1.6,0,0,0,1.615-1.588V7.941A1.6,1.6,0,0,0,1.615,6.353a1.622,1.622,0,0,0-.516.09,5.925,5.925,0,0,1,11.8,0,1.611,1.611,0,0,0-2.131,1.5v5.294a1.6,1.6,0,0,0,1.615,1.588,1.621,1.621,0,0,0,.538-.1v.627a.535.535,0,0,1-.538.529H8.516a1.588,1.588,0,1,0,0,1.059h3.868A1.6,1.6,0,0,0,14,15.353V6.882A6.95,6.95,0,0,0,7,0Z" transform="translate(2)" fill="#a4aaa8"/><path d="M0,0V6A1.631,1.631,0,0,0,1.333,4.548v-3.1A1.632,1.632,0,0,0,0,0Z" transform="translate(16.667 7.333)" fill="#a4aaa8"/><path d="M0,1.452v3.1A1.631,1.631,0,0,0,1.333,6V0A1.632,1.632,0,0,0,0,1.452Z" transform="translate(0 7.333)" fill="#a4aaa8"/></svg>