<svg xmlns="http://www.w3.org/2000/svg" width="19" height="16" viewBox="0 0 19 16"><path d="M4.68,9.36A4.68,4.68,0,1,1,9.36,4.673,4.689,4.689,0,0,1,4.68,9.36Zm0-8.138A3.451,3.451,0,1,0,8.125,4.673,3.452,3.452,0,0,0,4.68,1.222Z" transform="translate(4.32)" fill="#a4aaa8"/><path d="M18.329,7H.671A.661.661,0,0,1,0,6.334,6.364,6.364,0,0,1,6.38,0h6.24A6.364,6.364,0,0,1,19,6.334.661.661,0,0,1,18.329,7ZM5.923,1C3.445,1,1.328,3.15,1,6H17c-.326-2.85-2.442-5-4.923-5Z" transform="translate(0 9)" fill="#a4aaa8"/></svg>