<svg id="avatar" xmlns="http://www.w3.org/2000/svg" width="20" height="14.737" viewBox="0 0 20 14.737">
  <path id="Shape" d="M1.6,14.737H0a7.456,7.456,0,0,1,1.414-3.531A7.562,7.562,0,0,1,4.333,8.842a4.912,4.912,0,0,1-1.926-3.93A4.87,4.87,0,0,1,7.222,0a4.869,4.869,0,0,1,4.814,4.912,4.913,4.913,0,0,1-1.925,3.93,7.564,7.564,0,0,1,2.919,2.364,7.452,7.452,0,0,1,1.414,3.529h-1.6A5.728,5.728,0,0,0,7.222,9.824,5.729,5.729,0,0,0,1.6,14.737Zm5.618-13.1a3.247,3.247,0,0,0-3.21,3.275,3.247,3.247,0,0,0,3.21,3.275,3.246,3.246,0,0,0,3.209-3.275A3.246,3.246,0,0,0,7.222,1.637Z" fill="#a4aaa8"/>
  <path id="Path" d="M4.828,8.15A4.807,4.807,0,0,0,5.99,5.106,5.324,5.324,0,0,0,0,.032a3.474,3.474,0,0,1,.626.93,2.924,2.924,0,0,1,.358.761A3.5,3.5,0,0,1,4.2,5.106a3.469,3.469,0,0,1-1.43,2.706.756.756,0,0,0-.358.676.835.835,0,0,0,.715.846,3.487,3.487,0,0,1,2.861,3.3H7.778A5.061,5.061,0,0,0,4.828,8.15Z" transform="translate(12.222 1.053)" fill="#a4aaa8"/>
</svg>
